<svg width="844" height="1827" viewBox="0 0 844 1827" fill="none" xmlns="http://www.w3.org/2000/svg">
<rect width="843.913" height="1826.31" fill="url(#paint0_linear_18_418)"/>
<path d="M272.018 802.367C272.591 803.512 273.689 806.186 274.167 807.379L276.315 809.528C277.509 808.096 279.609 804.658 278.463 802.367C277.318 800.075 278.941 797.592 279.896 796.638L285.625 788.044L287.057 779.451L292.786 770.857L294.218 762.98L302.096 752.954L307.825 749.374L314.986 744.361L322.147 742.212L335.037 740.064L340.766 736.483L352.94 730.038L360.102 727.89C363.682 729.083 371.13 732.043 372.276 734.335C373.421 736.627 377.05 739.109 378.721 740.064C379.676 739.348 381.872 737.199 383.017 734.335C384.45 730.754 393.043 727.89 395.192 725.741C396.91 724.023 398.772 721.683 399.488 720.729C396.862 720.013 391.324 718.58 390.179 718.58C388.746 718.58 381.585 718.58 380.153 717.148C378.721 715.716 383.017 710.703 383.017 708.555C383.017 706.836 383.972 703.542 384.45 702.109C383.972 699.006 383.017 691.94 383.017 688.503C383.017 684.207 384.45 674.897 384.45 673.465V668.452L388.746 664.155L395.192 660.574C397.34 659.62 401.78 657.423 402.353 656.278L405.217 650.549C405.933 648.4 407.509 644.104 408.082 644.104C408.798 644.104 419.54 639.091 420.256 639.091C420.829 639.091 426.701 637.658 429.565 636.942L438.875 641.955C441.023 640.284 445.463 636.942 446.036 636.942C446.609 636.942 454.391 632.646 458.21 630.497L461.791 624.768L465.372 617.607C464.894 616.175 463.51 613.167 461.791 612.594C460.072 612.021 456.301 607.581 454.63 605.433V599.704V586.098V580.369C454.63 578.65 456.062 573.923 456.778 571.775C457.733 570.582 459.929 568.051 461.075 567.478C462.507 566.762 465.372 563.182 465.372 561.033C465.372 559.315 464.417 555.066 463.939 553.156C464.178 551.485 464.799 548 465.372 547.427C466.088 546.711 463.939 539.55 463.939 538.117C463.939 536.685 461.075 522.363 461.075 520.93C461.075 519.785 462.984 521.408 463.939 522.363L471.817 526.659L476.83 530.24C479.217 532.866 484.277 538.404 485.423 539.55C486.569 540.695 489.72 543.369 491.152 544.562C495.21 546.233 503.613 549.575 504.758 549.575H511.203L512.636 544.562L526.242 538.117L533.403 533.105C536.745 529.524 543.572 522.076 544.145 520.93C544.861 519.498 544.861 510.905 543.429 509.472C542.283 508.327 542.952 500.879 543.429 497.298L546.293 490.137L555.603 486.556C558.945 487.034 565.915 487.989 567.061 487.989C568.493 487.989 570.642 490.137 572.074 490.137C573.22 490.137 577.803 486.795 579.951 485.124C580.906 482.498 582.816 476.96 582.816 475.815C582.816 474.669 586.635 468.176 588.545 465.073L589.977 460.776L598.57 451.467L602.151 446.454C604.299 443.35 609.169 435.855 611.461 430.699C612.893 427.118 613.609 427.118 613.609 424.254C613.609 421.389 618.622 418.525 619.338 417.092C620.054 415.66 614.325 407.067 613.609 406.351C613.036 405.778 614.803 400.383 615.757 397.757H620.054L630.08 400.622H638.673C640.822 400.622 642.97 397.757 645.118 396.325C647.267 394.893 652.996 394.177 654.428 391.312C655.574 389.02 658.725 388.448 660.157 388.448L670.183 389.88C673.286 390.357 679.636 391.312 680.208 391.312C680.925 391.312 684.505 393.46 686.654 394.177C688.372 394.749 694.054 392.506 696.679 391.312C698.828 390.357 703.124 388.018 703.124 386.299C703.124 384.151 714.582 382.719 714.582 382.002C714.582 381.43 720.789 377.467 723.892 375.557V370.545C722.937 366.725 720.311 358.227 717.447 354.79C713.866 350.493 710.286 351.209 708.853 349.777C707.708 348.631 705.989 346.435 705.273 345.48V341.183L710.286 336.887L714.582 329.725V325.429C715.537 323.28 717.447 318.697 717.447 317.551C717.447 316.405 719.834 313.255 721.027 311.823L717.447 307.526C715.299 307.048 710.572 306.094 708.853 306.094C706.705 306.094 706.705 302.513 705.273 301.081C703.841 299.648 703.841 295.352 703.124 293.919C702.552 292.774 701.453 293.442 700.976 293.919H696.679H689.518L686.654 290.339V284.61H684.505C682.118 283.894 677.344 282.175 677.344 281.029C677.344 279.597 676.628 276.732 675.912 274.584C675.339 272.865 671.854 272.913 670.183 273.152L667.318 274.584L663.738 281.029L656.576 282.461H648.699C646.073 281.268 640.392 278.881 638.673 278.881C636.955 278.881 637.957 277.449 638.673 276.732V274.584C637.241 273.152 634.09 270.287 632.944 270.287C631.512 270.287 626.499 268.855 624.351 267.423C622.632 266.277 621.725 265.036 621.486 264.558C622.441 263.604 624.351 261.264 624.351 259.545C624.351 257.397 622.919 255.965 621.486 253.816C620.054 251.668 617.906 251.668 615.757 249.52C613.609 247.372 610.028 249.52 607.164 249.52C604.299 249.52 607.164 246.655 607.164 243.075C607.164 239.494 609.312 238.062 607.164 236.629C605.445 235.484 602.151 235.197 600.719 235.197V239.494L598.57 243.075C593.796 241.881 583.962 239.494 582.816 239.494C581.384 239.494 578.521 236.631 577.088 235.199L577.087 235.197C575.655 233.765 577.087 228.036 577.087 226.604C577.087 225.458 579.951 222.307 581.384 220.875C583.771 220.397 589.261 219.156 592.125 218.01C595.706 216.578 600.003 212.281 600.719 210.133C601.292 208.414 599.525 206.552 598.57 205.836C597.377 203.688 594.703 199.105 593.558 197.959C592.412 196.813 588.306 193.662 586.396 192.23H579.951C578.805 192.23 575.177 190.32 573.506 189.366L570.642 183.637C566.584 184.114 557.895 184.782 555.603 183.637C552.739 182.204 544.145 183.637 541.997 183.637C539.848 183.637 529.107 185.785 527.674 186.501C526.528 187.074 518.603 188.649 514.784 189.366L513.352 195.095V202.256C513.352 205.12 511.203 210.849 510.487 214.43C509.914 217.294 507.862 222.785 506.907 225.172H504.758L501.178 228.036V235.197C500.223 236.152 498.17 238.348 497.597 239.494C496.881 240.926 496.165 247.371 495.449 249.52C494.733 251.668 491.152 258.113 491.152 261.694C491.152 265.275 489.72 266.707 489.72 267.423C489.72 267.996 490.675 270.526 491.152 271.72C490.436 273.629 488.86 277.735 488.288 278.881C487.715 280.027 479.455 286.997 475.397 290.339L473.965 298.216C471.339 300.603 465.658 305.521 463.939 306.094C461.791 306.81 457.494 311.106 454.63 311.823C451.765 312.539 446.752 318.268 444.604 318.984C442.456 319.7 435.294 328.293 433.862 331.158C432.716 333.449 435.294 332.113 436.727 331.158H443.172C445.463 331.158 446.514 333.545 446.752 334.738C445.559 335.455 442.599 336.887 440.307 336.887C438.016 336.887 436.965 338.797 436.727 339.751C434.578 340.706 429.852 342.616 428.133 342.616C426.414 342.616 423.598 344.525 422.404 345.48C419.062 346.435 412.235 348.631 411.662 349.777C411.089 350.923 408.559 352.642 407.366 353.358C404.262 356.222 397.77 362.094 396.624 362.667C395.478 363.24 389.463 368.158 386.598 370.545L382.301 375.557L386.598 380.57V386.299H383.734L382.301 384.867L376.572 388.448C374.185 391.312 368.838 397.184 366.547 397.757C364.255 398.33 356.998 402.77 353.656 404.919L346.495 410.648L340.766 416.376L336.469 421.389L321.431 427.118L316.418 432.131L309.257 434.28H302.812L296.367 435.712L296.798 439.292L296.367 443.589C295.173 444.067 292.499 445.021 291.354 445.021C290.208 445.021 290.876 443.589 291.354 442.873C291.831 441.68 292.499 438.863 291.354 437.144C290.208 435.425 288.967 437.86 288.489 439.292H279.18C282.76 439.292 282.76 436.858 282.76 435.712C282.76 434.566 276.554 431.893 273.451 430.699L271.302 434.28L272.734 440.725L271.302 441.441C271.302 442.634 271.016 445.308 269.87 446.454C268.724 447.599 269.393 448.363 269.87 448.602V451.467L267.006 457.195C265.573 460.06 264.857 460.776 263.425 462.208C261.993 463.641 261.277 464.357 258.412 465.073C255.548 465.789 254.831 467.937 249.819 467.937C244.806 467.937 244.806 470.802 243.373 472.234L243.373 472.234C241.941 473.667 239.793 475.815 235.496 479.395C231.199 482.976 232.632 487.989 230.483 490.137C228.335 492.286 227.619 493.002 224.754 492.286C221.89 491.569 220.458 494.434 219.025 495.15C217.593 495.866 217.593 499.447 216.971 501.595C216.349 503.743 216.877 504.46 216.971 507.324C217.066 510.189 217.593 509.472 220.458 510.905C223.322 512.337 224.754 513.769 227.619 513.769C230.483 513.769 232.632 516.634 233.348 517.35C234.064 518.066 241.941 522.363 244.806 522.363C247.67 522.363 249.819 520.214 251.967 520.214C254.115 520.214 254.831 518.782 258.412 516.634C261.993 514.485 264.857 511.686 269.87 509.472C274.883 507.259 275.599 507.324 279.18 505.176C282.76 503.027 284.909 501.595 286.341 501.595H292.786C293.932 501.595 295.173 503.982 295.65 505.176C295.65 506.369 295.078 508.9 292.786 509.472C289.921 510.189 290.638 507.324 289.921 507.324H286.341H282.76L277.031 510.905L273.451 513.769C273.212 514.485 272.448 516.49 271.302 518.782C270.156 521.074 268.915 520.692 268.438 520.214L267.006 523.795C266.289 525.943 264.571 530.526 263.425 531.672C261.993 533.105 258.412 535.969 249.819 531.672C246.238 528.808 246.954 531.672 244.806 533.105C242.657 534.537 244.806 538.117 243.373 539.55C241.941 540.982 241.941 540.982 238.361 538.117C234.78 535.253 236.928 534.537 235.496 530.24C234.064 525.943 234.064 525.227 232.632 522.363C231.486 520.071 228.812 521.408 227.619 522.363C228.574 523.079 230.483 524.941 230.483 526.659V535.969C230.483 539.549 229.051 540.266 227.619 542.414C226.187 544.562 223.322 545.278 220.458 544.562C218.166 543.989 214.729 546.233 213.296 547.427L214.729 553.156L216.161 556.02L220.458 558.169L220.459 558.169C221.892 558.886 226.187 561.033 227.619 561.033C229.051 561.033 233.348 563.182 235.496 563.182C237.644 563.182 241.941 562.466 244.806 561.033C247.097 559.887 249.103 560.556 249.819 561.033V564.614C250.535 565.807 252.54 568.624 254.831 570.343C256.264 568.911 258.412 568.194 263.425 564.614C267.435 561.749 267.483 564.375 267.006 566.046C266.289 567.478 264.857 570.629 264.857 571.775C264.857 572.921 263.902 576.072 263.425 577.504L264.857 580.369V586.098C264.857 587.243 260.56 588.007 258.412 588.246C257.696 585.859 255.977 580.369 254.831 577.504C253.686 574.64 252.444 574.401 251.967 574.64L249.819 577.504L246.954 582.517C246.238 583.71 244.519 586.814 243.373 589.678C241.941 593.259 241.225 593.975 239.793 594.691C238.36 595.407 237.644 599.704 235.496 602.568C233.348 605.433 228.335 609.73 224.754 611.878C221.174 614.026 219.741 617.607 217.593 619.039C215.875 620.185 211.148 620.949 209 621.188C207.329 622.62 203.987 625.771 203.987 626.917C203.987 628.349 206.135 631.213 206.135 632.646V636.942C206.135 638.088 203.271 639.807 201.838 640.523C201.361 641.239 200.263 642.958 199.69 644.104C198.974 645.536 198.258 648.4 198.258 650.549C198.258 652.697 196.109 657.71 194.677 657.71H191.813C190.858 658.426 188.805 660.001 188.232 660.574C187.659 661.147 184.651 664.632 183.219 666.303V673.465C183.219 675.756 177.49 680.626 174.626 682.774L172.477 684.923L166.032 688.503C164.6 689.219 161.163 690.795 158.871 691.368C156.007 692.084 156.006 692.8 154.574 694.948C153.142 697.097 153.142 697.813 152.426 700.677C151.71 703.542 149.561 703.542 149.561 704.974C149.561 706.406 147.413 707.122 145.981 708.555C144.835 709.7 142.161 710.464 140.968 710.703C138.82 711.18 133.664 712.278 130.226 712.851C125.929 713.567 123.065 716.432 121.633 718.58C120.487 720.299 121.155 722.638 121.633 723.593L124.497 725.741C125.452 725.503 127.935 725.169 130.226 725.741C133.091 726.458 133.807 727.174 134.523 727.89C135.239 728.606 139.536 730.038 140.968 731.47C142.4 732.903 145.981 732.903 149.561 734.335C153.142 735.767 153.858 735.051 158.871 736.483C163.884 737.916 164.6 738.632 167.465 740.064C170.329 741.496 173.194 744.361 174.626 745.793C176.058 747.225 176.058 747.941 176.774 749.374C177.49 750.806 181.071 754.386 183.219 757.967C184.938 760.831 188.71 762.502 190.38 762.98C191.813 764.173 194.964 766.56 196.109 766.56C197.255 766.56 198.019 767.515 198.258 767.993C199.213 769.425 201.266 772.433 201.838 773.006C202.411 773.578 203.509 776.109 203.987 777.302C204.703 778.735 206.135 781.885 206.135 783.031C206.135 784.177 208.045 786.851 209 788.044C211.387 790.193 216.447 794.633 217.593 795.205C218.739 795.778 221.412 796.399 222.606 796.638C225.232 797.831 231.056 800.218 233.348 800.218H241.225C243.851 799.502 249.246 798.07 249.819 798.07H262.709C264.857 798.07 271.302 800.934 272.018 802.367Z" fill="#63C8C8"/>
<path d="M606.448 265.274V264.558L607.164 262.41C606.686 262.41 605.588 262.267 605.015 261.694C604.299 260.978 602.151 260.978 602.151 260.262C602.151 259.689 600.241 259.068 599.286 258.829L595.706 260.262L592.841 259.545H587.828L583.532 259.545L582.1 257.397L580.667 256.681L577.087 253.816L570.642 250.952L568.493 250.236L564.913 249.52L559.184 248.804L558.467 248.087L556.319 247.371H554.887L552.738 246.655V245.939L551.306 245.223H548.442L546.293 244.507C545.339 244.029 543.286 243.075 542.713 243.075C541.997 243.075 540.564 241.642 539.132 241.642C537.986 241.642 537.222 240.688 536.984 240.21L534.835 239.494H530.539H527.674H522.661H519.797L514.784 237.346L511.919 236.629L508.339 234.481L505.474 232.333L504.758 231.617L504.042 229.468V227.32L503.326 226.604L502.61 227.32V228.036L503.326 229.468L504.758 232.333L505.474 233.049C505.952 233.526 507.05 234.481 507.623 234.481C508.339 234.481 509.055 235.197 509.771 235.913C510.487 236.629 511.919 238.062 513.352 238.778C514.784 239.494 514.784 238.778 516.932 239.494C519.081 240.21 519.081 240.21 520.513 240.21L524.81 240.21H529.106C529.823 240.21 531.971 239.494 532.687 240.21C533.403 240.926 535.552 240.926 536.268 241.642C536.984 242.359 540.564 243.075 541.281 243.075C541.997 243.075 541.997 244.507 542.713 244.507C543.429 244.507 544.861 245.939 545.577 245.939H549.158H551.306C552.022 245.939 551.306 246.655 552.022 247.371C552.738 248.088 553.455 248.088 554.887 248.088C556.319 248.088 557.035 249.52 557.751 249.52C558.467 249.52 562.764 250.236 563.48 250.236C564.196 250.236 564.913 250.236 565.629 250.952C566.345 251.668 567.061 250.952 567.777 251.668C568.493 252.384 569.925 252.384 571.358 253.1C572.79 253.817 573.506 253.817 574.938 253.817C576.371 253.817 577.087 254.533 577.803 255.249C578.519 255.965 579.235 255.965 579.951 256.681C580.667 257.397 580.667 258.113 581.383 258.113C581.956 258.113 582.1 259.068 582.1 259.545C582.577 259.784 583.675 260.262 584.248 260.262H585.68H588.545C589.118 260.262 591.648 260.739 592.841 260.978H594.99C595.228 261.216 595.706 261.837 595.706 262.41C595.706 262.983 596.661 263.126 597.138 263.126L599.286 265.274L601.435 265.991H604.299L606.448 265.274Z" fill="#49B8B1"/>
<path d="M376.572 487.273L377.288 487.989V485.841L378.005 484.408L379.437 482.976H380.869C381.824 482.976 383.733 483.119 383.733 483.692C383.733 484.265 385.166 483.931 385.882 483.692H388.03L391.611 482.26L395.191 480.112L399.488 478.679L401.637 480.112V478.679C402.353 477.963 403.785 476.388 403.785 475.815C403.785 475.242 404.74 474.144 405.217 473.666L408.082 472.234L409.514 469.37V467.937L410.946 465.789C411.185 465.073 411.519 463.641 410.946 463.641C410.23 463.641 410.23 462.925 409.514 462.208C408.798 461.492 409.514 460.776 408.798 460.06C408.225 459.487 409.037 458.867 409.514 458.628L411.662 455.047H413.811L415.959 455.763C416.675 456.241 418.251 457.196 418.824 457.196C419.396 457.196 420.494 457.673 420.972 457.912L423.836 457.196L425.985 456.48L427.417 455.763L430.998 455.047C431.952 454.57 434.149 453.615 435.294 453.615C436.727 453.615 439.591 453.615 440.307 454.331C441.023 455.047 442.456 454.331 443.172 455.047C443.888 455.763 447.468 455.763 448.185 455.763H451.765L457.494 456.48L459.643 457.196H461.791H465.372H467.52H468.952L471.817 455.763C473.488 455.525 476.973 455.047 477.546 455.047C478.118 455.047 480.649 454.57 481.842 454.331H483.275H486.139H487.571C488.049 454.57 489.004 455.19 489.004 455.763C489.004 456.336 489.958 456.48 490.436 456.48H492.584H496.165L499.745 457.196C500.223 457.434 501.321 457.912 501.894 457.912C502.467 457.912 503.565 458.867 504.042 459.344L504.758 458.628L501.178 457.196C499.745 456.718 496.738 455.763 496.165 455.763H490.436L489.72 454.331C488.526 453.854 485.996 453.042 485.423 453.615C484.707 454.331 481.842 453.615 481.126 453.615C480.41 453.615 477.546 454.331 476.829 454.331C476.257 454.331 473.726 454.809 472.533 455.047L468.952 456.48H463.939H461.791C461.075 456.241 459.643 455.62 459.643 455.047C459.643 454.474 458.21 454.331 457.494 454.331H455.346C454.63 454.092 453.197 453.472 453.197 452.899C453.197 452.326 450.81 452.66 449.617 452.899L446.752 452.183H441.739C441.023 452.183 439.591 450.034 439.591 449.318C439.591 448.745 440.546 449.08 441.023 449.318C441.978 449.08 444.317 448.459 446.036 447.886C447.755 447.313 449.139 446.692 449.617 446.454L448.901 445.738H446.036H443.888L440.307 447.17C440.068 446.931 439.448 446.454 438.875 446.454C438.302 446.454 436.727 445.022 436.01 444.305L434.578 445.738C434.101 446.215 433.003 447.456 432.43 448.602C431.857 449.748 431.714 450.512 431.714 450.751C430.998 451.467 429.422 452.899 428.849 452.899C428.133 452.899 426.701 453.615 425.985 453.615C425.412 453.615 423.359 454.092 422.404 454.331L420.972 453.615H418.824L416.675 452.899L415.959 452.183L413.811 450.751H412.378L410.23 452.183L409.514 452.899L408.082 454.331L406.649 455.763C406.411 456.241 405.79 457.196 405.217 457.196C404.501 457.196 403.785 460.06 403.785 460.776C403.785 461.492 403.785 462.208 404.501 462.925C405.217 463.641 405.933 463.641 405.933 464.357C405.933 464.93 406.411 465.55 406.649 465.789V466.505L405.217 467.937L403.069 470.802L401.637 472.234L399.488 474.383L398.772 475.099H396.624L395.191 474.383H393.759C393.282 475.099 392.327 476.674 392.327 477.247C392.327 477.82 391.85 477.486 391.611 477.247L389.462 477.963L387.314 479.395L386.598 480.828L385.882 482.26V482.976H383.733L380.153 482.26H378.721L378.005 482.976L377.288 485.124L376.572 487.273Z" fill="#49B8B1"/>
<path d="M295.65 508.757L296.367 505.176L298.515 505.892C299.947 505.892 303.098 505.749 304.244 505.176C305.676 504.46 308.541 504.46 309.257 503.744C309.83 503.171 311.883 502.073 312.837 501.595L317.134 498.731C317.134 498.731 319.282 497.299 319.999 496.582C320.571 496.01 322.624 494.434 323.579 493.718L328.592 494.434L330.024 493.718L332.173 492.286C333.605 492.047 336.613 491.57 337.186 491.57C337.902 491.57 340.766 492.286 342.198 492.286C343.631 492.286 350.792 491.57 352.94 492.286C355.089 493.002 355.805 490.853 356.521 490.137C357.094 489.564 358.192 487.512 358.669 486.557L361.534 485.125C362.489 485.602 364.541 486.557 365.114 486.557H371.559H375.856L380.153 490.853C380.869 491.808 382.444 493.861 383.017 494.434L385.166 496.582H390.179C390.895 497.06 392.327 498.158 392.327 498.731C392.327 499.447 396.624 500.879 398.056 501.595C399.202 502.168 400.92 504.221 401.637 505.176C402.83 505.653 405.217 506.751 405.217 507.324C405.217 507.897 406.649 508.995 407.366 509.473C409.991 510.666 415.386 513.053 415.959 513.053C416.675 513.053 419.54 512.337 420.972 512.337C422.404 512.337 425.985 511.621 426.701 511.621H433.146H436.727C437.872 511.621 438.636 510.666 438.875 510.189L445.32 509.473L448.901 511.621C449.617 512.098 451.192 513.197 451.765 513.769C452.338 514.342 453.914 514.963 454.63 515.202H460.359H466.804L470.384 513.053C471.101 513.531 472.676 514.486 473.249 514.486C473.965 514.486 471.817 515.918 471.101 515.918C470.528 515.918 469.43 517.35 468.952 518.066L467.52 519.498L468.952 520.931L471.817 523.795L475.397 525.227L479.694 528.092L480.41 530.956C480.888 531.195 481.986 531.816 482.558 532.389C483.131 532.962 484.707 533.582 485.423 533.821L488.287 535.253L492.584 537.401L495.449 540.266C496.165 540.982 497.597 543.13 498.313 543.847L500.462 545.995C501.178 546.711 504.758 545.995 505.474 545.995C506.191 545.995 508.339 544.563 508.339 543.847C508.339 543.274 508.816 541.698 509.055 540.982L513.352 540.266C515.023 539.55 518.508 537.974 519.081 537.401C519.654 536.829 521.707 535.253 522.661 534.537H525.526L524.094 536.685L520.513 538.834L511.92 543.847L509.771 547.427L504.042 548.143L498.313 546.711C496.881 545.518 494.016 542.987 494.016 542.414C494.016 541.841 492.107 541.221 491.152 540.982L488.287 538.834L483.275 535.969L478.978 531.673L476.829 528.808L467.52 523.079L465.372 521.647L462.507 518.782L460.359 519.498V524.511L461.075 529.524L460.359 534.537L462.507 538.118L463.223 541.698V543.847V547.427L462.507 548.143H461.075L459.643 543.847L458.21 538.118V529.524L458.926 520.931V518.066L455.346 516.634L449.617 515.918L446.752 513.053C446.036 512.815 444.461 512.337 443.888 512.337C443.172 512.337 438.875 514.486 438.159 514.486H436.01H429.565L425.269 515.202H415.959L415.243 514.486C414.288 514.247 412.235 513.769 411.662 513.769C410.946 513.769 406.649 511.621 405.933 511.621C405.36 511.621 402.83 509.234 401.637 508.041C401.637 508.041 398.056 506.608 398.056 505.892C398.056 505.176 396.624 504.46 395.908 503.744L393.043 500.879L390.179 499.447H387.314L384.45 498.731L379.437 495.866V493.718L376.572 490.853L375.14 489.421H371.559L367.263 488.705L363.682 487.989L360.818 488.705V490.853L357.953 493.002L353.656 493.718L351.508 495.15L346.495 494.434C345.063 494.434 342.055 494.291 341.482 493.718C340.766 493.002 337.902 493.718 337.186 493.718C336.613 493.718 334.56 494.195 333.605 494.434L331.457 495.866H328.592C328.019 495.866 326.444 495.389 325.728 495.15L324.295 495.866L321.431 498.731C320.715 499.447 319.999 500.879 319.282 501.595C318.566 502.312 317.85 503.744 317.134 503.744C316.561 503.744 315.463 504.699 314.986 505.176L313.553 505.892L311.405 505.176L309.257 506.608L307.824 508.041H304.96L302.095 508.757H299.231L296.367 509.473L295.65 508.757Z" fill="#49B8B1"/>
<path d="M238.361 703.542L239.077 704.974L237.644 703.542L236.212 701.393L236.928 699.245V697.097L237.644 694.232V692.084L235.496 694.232L233.348 694.948L234.064 692.084V689.219V686.355H235.496L236.928 687.071V682.774V679.193L239.077 674.897L241.225 670.6L243.373 667.019L246.238 662.723V659.858L245.522 655.561L247.67 653.413L250.535 651.265L253.399 649.832L254.831 646.968V642.671L257.696 641.239H260.56L262.709 639.807L264.141 637.658L267.005 636.942L270.586 636.226H273.451L274.167 632.645L274.883 628.349V624.768L274.167 622.62L271.302 617.607L268.438 612.594L270.586 609.013V605.433L269.87 601.852V598.272L267.722 596.839L264.141 597.555L261.993 596.839L260.56 594.691V592.543L262.709 591.11L261.993 589.678L260.56 588.962L262.709 588.246L264.141 590.394L261.993 593.975L264.141 596.839L267.005 596.123L270.586 597.555V601.136L271.302 604.717V609.013L269.154 612.594L272.018 617.607C272.973 618.8 274.883 621.331 274.883 621.904C274.883 622.477 275.36 625.007 275.599 626.2L274.883 631.213V636.226C274.405 636.465 273.307 636.942 272.734 636.942H269.154L264.141 638.374L262.709 641.239L256.98 641.955C256.741 642.671 256.264 644.247 256.264 644.82C256.264 645.392 255.786 647.923 255.547 649.116L252.683 651.265L250.535 651.981L248.386 653.413L246.954 656.994V662.007L244.09 667.019L239.793 674.181L238.361 678.477L237.644 682.774V687.787L238.361 688.503L239.077 685.639L241.225 686.355L240.509 687.787V689.219L241.941 688.503L243.373 687.787L244.09 689.219L242.657 690.651H241.225H239.793V692.084L239.077 693.516L238.361 695.664L237.644 697.813L236.928 700.677L237.644 702.826L238.361 703.542Z" fill="#49B8B1"/>
<path d="M445.32 616.891L442.456 617.607H441.023L440.307 616.175V615.459H441.739L442.456 614.743L441.739 613.31H441.023H438.875L437.443 612.594V611.878V610.446L438.875 609.73V609.014L437.443 608.297L436.01 607.581L436.727 606.865V605.433L437.443 604.717H438.875L439.591 606.149L441.023 608.297L443.172 609.73V611.162L444.604 611.878L446.752 612.594V614.026V614.743V616.891H445.32Z" fill="#49B8B1"/>
<path d="M274.167 687.787V689.219L272.018 687.071L271.302 685.639V683.49V681.342L269.154 680.626L271.302 679.91L273.451 678.477L276.315 677.761L277.747 679.91L279.18 681.342L278.464 682.774L276.315 683.49L274.883 682.774L274.167 684.922V687.787Z" fill="#49B8B1"/>
<path d="M374.424 563.898L370.843 564.614H368.695L365.831 568.911L361.534 570.343L359.385 569.627L357.237 568.194L355.805 566.046L350.076 561.033L347.928 556.736L343.631 550.291L340.766 546.711L338.618 541.698L335.037 538.833L328.592 537.401L322.147 536.685L315.702 537.401L312.121 535.253L307.825 530.956L302.812 526.659L298.515 521.646L294.934 518.066L292.786 515.201L290.638 510.188L292.07 510.905L292.786 512.337L296.367 518.066C298.515 519.975 302.812 523.938 302.812 524.511C302.812 525.227 309.257 529.524 309.973 530.956C310.546 532.102 312.599 534.298 313.554 535.253L320.715 534.537L325.012 535.969H329.308C330.454 535.969 334.56 536.924 336.47 537.401C336.947 538.356 338.045 540.409 338.618 540.982C339.334 541.698 340.766 545.995 341.482 545.995C342.055 545.995 343.153 547.427 343.631 548.143L347.211 551.724L347.928 555.304L351.508 560.317L355.089 563.182L357.237 566.046L358.669 568.911H363.682L365.114 567.478L368.695 563.182L369.411 561.749H372.276L375.856 560.317H383.734C384.307 560.317 386.837 559.362 388.03 558.885L391.611 556.736L397.34 553.872L401.637 552.44L405.933 551.007L412.379 550.291L416.675 549.575L418.108 551.724L420.972 552.44L423.837 555.304L424.553 558.169C424.791 558.885 425.412 560.46 425.985 561.033C426.558 561.606 426.701 562.704 426.701 563.182L428.849 565.33C429.422 565.903 430.043 567.001 430.282 567.478H428.849L426.701 565.33L423.837 562.465C423.264 561.893 423.12 558.407 423.12 556.736L420.972 556.02C420.256 555.543 418.824 554.445 418.824 553.872C418.824 553.299 417.391 552.201 416.675 551.724L413.811 552.44L411.662 551.724L404.501 552.44L401.637 553.872L398.772 555.304L394.476 558.169L395.192 558.885L396.624 561.033L395.192 561.749L393.759 559.601H390.895L386.598 561.033L383.734 561.749L385.166 563.898L388.03 565.33L390.895 568.194L390.179 568.911L385.882 566.046L381.585 562.465L379.437 563.182L374.424 563.898Z" fill="#49B8B1"/>
<path d="M361.534 548.143L362.25 546.711C362.727 546.234 363.825 545.279 364.398 545.279C365.114 545.279 366.546 544.563 367.263 543.846C367.836 543.274 369.888 543.13 370.843 543.13H373.708V541.698L376.572 540.266L379.437 539.55L382.301 537.401L380.153 538.117L375.856 539.55L372.275 540.982L367.263 542.414L364.398 543.846H360.817L359.385 545.279L360.101 547.427L361.534 548.143Z" fill="#49B8B1"/>
<path d="M292.786 607.581L288.489 604.717L287.773 604.001L289.921 602.569L292.786 601.852L293.502 600.42H292.07L289.205 601.136L286.341 602.569L283.476 603.285L284.192 604.001L285.625 605.433L287.773 607.581L289.205 609.014L292.07 609.73L294.218 609.014L292.786 607.581Z" fill="#49B8B1"/>
<path d="M282.044 630.497L278.464 629.065L281.328 627.633L284.192 626.917H287.773V629.065H286.341L282.044 630.497Z" fill="#49B8B1"/>
<path d="M289.921 649.116L288.489 647.684L289.205 646.968H289.921H291.354L294.218 648.4L296.366 649.116L295.65 649.833L294.218 650.549L292.786 651.981L291.354 652.697L290.638 651.265L289.921 649.116Z" fill="#49B8B1"/>
<path d="M321.431 644.82L322.147 641.955V641.239L322.863 641.955L323.579 645.536L324.295 648.4H326.444H327.876L329.308 649.832L330.741 651.981L329.308 652.697L328.592 651.981L326.444 649.832L325.012 651.265L324.295 652.697L322.863 654.129L320.715 651.981L319.283 650.549L321.431 648.4V646.968V644.82Z" fill="#49B8B1"/>
<path d="M194.677 661.291L196.109 659.142L196.825 658.426L197.541 659.142L196.109 659.859L195.393 661.291L196.825 664.871L196.109 666.304L195.393 669.168V671.316L196.825 675.613L197.541 680.626L196.825 683.491V686.355L198.258 688.503L199.69 689.936L200.406 692.084L199.69 694.232L198.974 697.097L200.406 698.529L202.554 699.245L203.987 700.678L204.703 703.542L206.851 704.974H208.283V702.11L208.999 699.961L211.864 698.529L212.58 700.678V703.542H214.012L216.877 702.11L217.593 703.542L220.457 704.258H224.754L226.903 705.69L229.767 707.839L231.915 711.419V715.716L232.632 721.445L231.915 727.89V732.187V733.619L230.483 732.903L231.199 726.458L231.915 718.581L231.199 711.419L229.051 707.839L226.903 707.123L224.754 706.407L221.89 707.123V708.555H220.457H218.309L216.877 709.271L215.445 711.419C214.967 710.942 214.012 709.844 214.012 709.271C214.012 708.698 212.103 707.123 211.148 706.407C210.67 707.123 209.716 708.698 209.716 709.271C209.716 709.844 208.761 711.897 208.283 712.852H207.567L206.851 710.703L208.283 706.407L206.851 705.69L204.703 704.974L203.27 700.678L201.122 699.961L198.974 699.245L198.258 697.097L199.69 693.516L198.974 690.652L196.825 687.787L196.109 684.923L196.825 681.342L196.109 677.045L195.393 674.181L194.677 668.452L196.109 665.587L195.393 664.155L194.677 661.291Z" fill="#49B8B1"/>
<g filter="url(#filter0_f_18_418)">
<rect x="434.787" y="382.198" width="24.6306" height="23.1938" rx="11.5969" fill="#FFEF9A"/>
</g>
<path d="M457.776 395.643C457.776 401.537 452.997 406.316 447.102 406.316C441.208 406.316 436.429 401.537 436.429 395.643C436.429 389.748 441.208 384.969 447.102 384.969C452.997 384.969 457.776 389.748 457.776 395.643Z" fill="url(#paint1_linear_18_418)"/>
<g filter="url(#filter1_b_18_418)">
<g filter="url(#filter2_i_18_418)">
<path d="M453.191 401.146C453.265 400.725 453.304 400.292 453.304 399.85C453.304 395.713 449.919 392.359 445.743 392.359C442.639 392.359 439.971 394.212 438.807 396.863C437.864 396.056 436.639 395.569 435.302 395.569C432.319 395.569 429.901 397.991 429.901 400.979C429.901 401.146 429.909 401.31 429.923 401.473C428.489 402.169 427.501 403.63 427.501 405.319C427.501 407.684 429.435 409.6 431.821 409.6H452.224C454.61 409.6 456.544 407.684 456.544 405.319C456.544 403.285 455.112 401.582 453.191 401.146Z" fill="url(#paint2_linear_18_418)"/>
</g>
</g>
<g filter="url(#filter3_i_18_418)">
<path d="M373.333 437.427C373.412 436.977 373.454 436.513 373.454 436.041C373.454 431.617 369.834 428.03 365.369 428.03C362.049 428.03 359.197 430.012 357.952 432.847C356.943 431.984 355.634 431.463 354.204 431.463C351.015 431.463 348.429 434.053 348.429 437.248C348.429 437.426 348.437 437.602 348.453 437.776C346.919 438.521 345.862 440.083 345.862 441.889C345.862 444.417 347.931 446.467 350.482 446.467H372.299C374.85 446.467 376.919 444.417 376.919 441.889C376.919 439.714 375.387 437.892 373.333 437.427Z" fill="url(#paint3_linear_18_418)"/>
</g>
<g filter="url(#filter4_di_18_418)">
<path d="M354.22 441.481C352.391 443.888 349.831 448.702 354.22 448.702C358.608 448.702 356.048 443.888 354.22 441.481Z" fill="#00BCFF"/>
</g>
<path d="M368.462 441.481C366.634 443.888 364.074 448.702 368.462 448.702C372.851 448.702 370.291 443.888 368.462 441.481Z" fill="#00BCFF"/>
<path d="M361.638 451.471C359.809 453.877 357.249 458.691 361.638 458.691C366.027 458.691 363.467 453.877 361.638 451.471Z" fill="#00BCFF"/>
<g filter="url(#filter5_i_18_418)">
<path d="M242.43 784.094C242.459 783.931 242.474 783.763 242.474 783.591C242.474 781.984 241.154 780.682 239.527 780.682C238.317 780.682 237.278 781.402 236.824 782.431C236.457 782.118 235.98 781.929 235.458 781.929C234.296 781.929 233.354 782.869 233.354 784.029C233.354 784.094 233.357 784.158 233.362 784.221C232.803 784.491 232.418 785.059 232.418 785.715C232.418 786.633 233.172 787.377 234.102 787.377H242.053C242.983 787.377 243.736 786.633 243.736 785.715C243.736 784.925 243.178 784.263 242.43 784.094Z" fill="url(#paint4_linear_18_418)"/>
</g>
<g filter="url(#filter6_f_18_418)">
<rect x="221.578" y="780.363" width="19.129" height="18.0131" rx="9.00656" fill="#FFEF9A"/>
</g>
<path d="M239.592 789.369C239.592 794.079 235.809 797.898 231.143 797.898C226.477 797.898 222.695 794.079 222.695 789.369C222.695 784.659 226.477 780.841 231.143 780.841C235.809 780.841 239.592 784.659 239.592 789.369Z" fill="url(#paint5_linear_18_418)"/>
<g filter="url(#filter7_i_18_418)">
<path d="M229.836 795.89C229.865 795.727 229.88 795.558 229.88 795.387C229.88 793.78 228.561 792.478 226.934 792.478C225.724 792.478 224.685 793.198 224.231 794.227C223.863 793.914 223.386 793.724 222.865 793.724C221.703 793.724 220.76 794.665 220.76 795.825C220.76 795.89 220.763 795.954 220.769 796.017C220.21 796.287 219.825 796.855 219.825 797.511C219.825 798.429 220.579 799.173 221.509 799.173H229.459C230.389 799.173 231.143 798.429 231.143 797.511C231.143 796.721 230.585 796.059 229.836 795.89Z" fill="url(#paint6_linear_18_418)"/>
</g>
<path d="M276.495 504.752C276.495 509.946 272.284 514.158 267.089 514.158C261.894 514.158 257.683 509.946 257.683 504.752C257.683 499.557 261.894 495.346 267.089 495.346C272.284 495.346 276.495 499.557 276.495 504.752Z" fill="url(#paint7_linear_18_418)"/>
<g filter="url(#filter8_b_18_418)">
<g filter="url(#filter9_i_18_418)">
<path d="M271.307 508.311C271.369 507.96 271.401 507.599 271.401 507.231C271.401 503.784 268.58 500.989 265.101 500.989C262.515 500.989 260.292 502.534 259.322 504.742C258.536 504.07 257.516 503.664 256.402 503.664C253.917 503.664 251.902 505.682 251.902 508.172C251.902 508.31 251.908 508.448 251.92 508.583C250.725 509.163 249.902 510.38 249.902 511.788C249.902 513.758 251.514 515.354 253.502 515.354H270.501C272.489 515.354 274.101 513.758 274.101 511.788C274.101 510.093 272.907 508.674 271.307 508.311Z" fill="url(#paint8_linear_18_418)"/>
</g>
</g>
<g filter="url(#filter10_di_18_418)">
<path d="M256.272 517.749C255.208 519.145 253.717 521.939 256.272 521.939C258.827 521.939 257.337 519.145 256.272 517.749Z" fill="#00BCFF"/>
</g>
<g filter="url(#filter11_di_18_418)">
<path d="M262.258 519.801C261.193 521.198 259.703 523.991 262.258 523.991C264.813 523.991 263.322 521.198 262.258 519.801Z" fill="#00BCFF"/>
</g>
<g filter="url(#filter12_di_18_418)">
<path d="M267.816 517.749C266.751 519.145 265.261 521.939 267.816 521.939C270.371 521.939 268.881 519.145 267.816 517.749Z" fill="#00BCFF"/>
</g>
<g filter="url(#filter13_b_18_418)">
<g filter="url(#filter14_i_18_418)">
<path d="M523.972 286.148C524.044 285.741 524.082 285.321 524.082 284.893C524.082 280.89 520.806 277.645 516.765 277.645C513.761 277.645 511.18 279.438 510.053 282.003C509.14 281.223 507.956 280.751 506.662 280.751C503.775 280.751 501.436 283.095 501.436 285.986C501.436 286.147 501.443 286.307 501.457 286.464C500.069 287.138 499.113 288.551 499.113 290.186C499.113 292.474 500.985 294.328 503.294 294.328H523.036C525.345 294.328 527.217 292.474 527.217 290.186C527.217 288.217 525.831 286.569 523.972 286.148Z" fill="url(#paint9_linear_18_418)"/>
</g>
</g>
<g filter="url(#filter15_i_18_418)">
<path d="M515.651 294.337H511.173L509.227 299.572H512.731L511.109 306.107L517.014 297.533H514.418L515.651 294.337Z" fill="url(#paint10_linear_18_418)"/>
</g>
<g filter="url(#filter16_f_18_418)">
<rect x="501.619" y="291.339" width="23.0027" height="4.47523" rx="2.23761" fill="#FFED8D"/>
</g>
<g filter="url(#filter17_di_18_418)">
<path d="M518.728 303.831C518.033 304.14 517.761 304.401 517.513 305.046C517.315 304.421 517.071 304.141 516.298 303.831C517.093 303.572 517.309 303.272 517.513 302.616C517.763 303.22 517.917 303.55 518.728 303.831Z" fill="url(#paint11_linear_18_418)"/>
</g>
<g filter="url(#filter18_i_18_418)">
<path d="M507.45 297.029C506.755 297.338 506.484 297.599 506.235 298.244C506.037 297.619 505.794 297.339 505.02 297.029C505.816 296.77 506.032 296.47 506.235 295.814C506.485 296.418 506.639 296.748 507.45 297.029Z" fill="url(#paint12_linear_18_418)"/>
</g>
<ellipse cx="443.5" cy="398.974" rx="27.5" ry="25" fill="white" fill-opacity="0.23"/>
<ellipse cx="512.5" cy="290.474" rx="27.5" ry="25.5" fill="white" fill-opacity="0.23"/>
<ellipse cx="360" cy="441.474" rx="27" ry="25.5" fill="white" fill-opacity="0.23"/>
<ellipse cx="264" cy="507.974" rx="26" ry="27" fill="white" fill-opacity="0.23"/>
<ellipse cx="231" cy="789.474" rx="26" ry="25.5" fill="white" fill-opacity="0.23"/>
<rect width="844" height="1826.5" fill="#222222" fill-opacity="0.41"/>
<g filter="url(#filter19_f_18_418)">
<ellipse cx="422" cy="532" rx="272" ry="286" fill="#9A9A9A" fill-opacity="0.4"/>
</g>
<path d="M471.795 347.261L459.073 355.609L442.377 351.236L403.816 343.683L358.497 334.54C358.497 334.54 348.956 331.657 341.006 330.167C334.645 328.974 330.272 329.372 325.104 323.806C323.106 319.772 322.665 316.688 324.707 312.675C327.383 307.415 331.149 306.407 337.03 305.917C342.133 305.492 345.116 308.511 349.751 310.687C355.546 313.408 362.87 319.036 362.87 319.036C362.87 319.036 365.112 314.801 366.845 312.278C371.944 304.856 375.522 300.471 383.542 296.376C392.889 291.604 399.776 291.393 410.177 292.798C419.976 294.123 433.631 302.339 433.631 302.339C433.631 302.339 440.787 296.774 445.955 300.749C450.328 304.113 448.34 310.29 448.34 310.29L459.869 318.241C459.869 318.241 467.966 324.014 471.795 328.974C474.642 332.663 475.865 335.051 477.758 339.31C478.437 340.838 479.348 343.285 479.348 343.285L471.795 347.261Z" fill="#E62118"/>
<path d="M346.174 306.712C356.409 309.445 367.243 322.216 367.243 322.216L378.97 331.16L389.107 338.515L393.083 340.9L387.915 340.105L370.423 336.925C370.423 336.925 352.932 333.347 339.415 330.564C334.38 329.069 331.862 329.769 326.694 326.191C324.195 323.585 322.542 321.45 322.719 317.843C322.851 315.135 323.473 313.25 325.104 311.085C328.406 306.703 332.738 305.648 338.223 305.519C340.902 305.456 343.584 306.021 346.174 306.712Z" fill="#C02017"/>
<path d="M528.245 710.21L523.474 693.116L532.617 686.755L538.58 682.383H545.339L548.519 686.755L549.711 693.116L556.867 697.091L557.662 703.849L555.277 710.21L562.433 716.173V724.919L556.867 731.279L543.748 738.435L536.593 740.82L528.245 710.21Z" fill="#F7CC50"/>
<path d="M485.311 490.373L482.926 484.41C482.926 484.41 488.676 492.18 490.081 494.349C495.255 502.335 498.686 506.473 503.597 514.623C509.404 524.259 512.074 530.006 517.114 540.065C520.815 547.453 523.238 551.455 526.257 559.147C527.997 563.58 529.217 566.022 530.232 570.675C531.098 574.645 530.934 576.978 531.425 581.011C532.011 585.828 533.015 593.335 533.015 593.335C533.015 593.335 533.983 585.355 534.208 580.216C534.799 566.679 531.425 545.631 531.425 545.631C531.425 545.631 528.961 520.244 531.425 504.287C532.965 494.314 533.343 488.303 537.785 479.242C541.503 471.658 544.427 467.614 550.506 461.751C557.637 454.874 562.469 451.028 571.973 448.235C581.804 445.346 588.384 445.331 598.211 448.235C606.892 450.8 611.427 454.029 618.087 460.161C625.311 466.811 629.815 471.36 632.399 480.832C634.441 488.321 634.319 493.188 632.399 500.709C630.317 508.863 628.03 513.889 621.665 519.393C614.903 525.241 609.133 527.03 600.198 527.344C591.843 527.638 586.1 526.944 579.527 521.779C573.664 517.173 569.931 512.927 569.588 505.48C569.429 502.012 569.097 499.512 571.178 496.734C573.177 494.066 575.426 493.19 578.731 492.758C583.164 492.18 586.946 493.042 589.465 496.734C590.407 498.115 589.105 500.436 590.657 502.299C592.21 504.162 593.478 503.617 595.03 505.48C595.03 505.48 600.912 505.812 604.174 504.287C607.163 502.889 608.874 501.574 610.534 498.721C613.58 493.489 611.47 488.814 608.983 483.304L608.944 483.218C606.769 478.398 604.536 475.905 600.198 472.882C596.485 470.294 593.931 469.246 589.465 468.509C583.269 467.487 579.309 468.36 573.563 470.894C566.922 473.824 563.765 477.239 559.65 483.218C554.16 491.192 554.428 497.511 552.892 507.07C550.797 520.098 552.513 527.67 552.892 540.86C553.414 559.059 558.451 569.322 556.072 587.372C554.453 599.656 553.316 606.925 547.724 617.982C544.983 623.401 543.113 626.314 539.375 631.101C535.254 636.379 532.207 638.71 527.449 643.424C520.661 650.151 509.56 660.121 509.56 660.121L496.044 674.432C496.044 674.432 495.554 672.737 495.249 671.649C490.876 615.597 493.659 528.537 493.659 528.537V523.766L489.684 503.889L485.311 490.373Z" fill="#48B8AF"/>
<path d="M304.83 642.629C298.072 630.306 286.941 602.876 286.941 602.876C286.941 602.876 291.904 600.387 294.494 598.9C306.838 591.814 312.526 585.777 322.719 575.843C337.357 561.578 344.822 552.491 354.522 534.5C362.887 518.983 367.268 510.062 370.423 492.759C371.767 485.388 372.411 473.279 372.411 473.279C372.411 473.279 387.081 471.085 395.468 467.316C403.964 463.498 408.713 461.105 414.55 454.198C421.751 445.676 424.086 438.691 424.886 427.563C425.661 416.78 424.802 410.227 418.127 401.723C414.37 396.935 411.041 393.855 405.406 391.387C401.641 389.738 396.263 389.002 396.263 389.002L395.468 387.809C395.468 387.809 398.779 385.837 400.636 384.232C406.215 379.407 407.91 374.365 409.382 367.138C408.984 359.982 408.984 357.597 407.394 350.441C406.73 347.452 402.624 342.888 402.624 342.888L459.471 354.814C459.471 354.814 454.455 357.981 451.52 360.379C445.39 365.388 442.56 368.146 439.594 375.486L439.589 375.498C437.08 381.707 435.382 385.91 436.016 392.58C436.947 402.367 438.99 407.526 445.557 414.842C449.958 419.745 453.278 422.134 459.471 424.383C463.191 425.733 469.012 426.768 469.012 426.768C469.012 426.768 466.742 430.278 465.434 431.936C461.492 436.935 453.906 443.464 453.906 443.464C453.906 443.464 453.849 444.678 453.906 445.452L454.701 445.849L455.496 515.418L454.701 557.954L453.906 639.449C453.906 639.449 453.594 659.349 454.701 671.252C455.797 683.046 456.732 688.451 460.664 699.079C464.211 708.669 465.931 714.774 472.59 722.534C476.093 726.617 482.528 732.075 482.528 732.075C482.528 732.075 482.941 734.033 483.323 735.255C487.696 741.615 488.896 743.493 492.466 748.771C496.037 754.049 498.827 755.927 498.827 755.927L488.094 753.541C488.094 753.541 476.766 750.913 469.012 749.169C458.284 746.755 453.097 746.051 442.377 743.603C438.962 742.823 432.439 741.218 432.439 741.218C432.439 741.218 428.113 731.692 426.476 725.714C423.56 715.066 424.628 707.976 426.476 697.091C428.179 687.058 434.426 673.239 434.426 673.239L436.016 669.662L434.426 669.264C425.681 678.805 413.727 687.292 408.189 703.055C405.979 709.346 404.59 713.083 404.611 719.751C403.816 732.075 410.177 738.833 412.959 744.001C406.599 746.386 401.828 751.156 401.828 751.156C401.828 751.156 401.828 751.554 400.636 752.349C384.337 748.771 377.579 747.976 357.305 742.808C341.403 699.079 370.026 667.674 391.89 643.822C380.759 629.113 374.001 617.187 370.423 592.142C354.919 611.621 343.788 624.74 304.83 642.629Z" fill="#48B8AF"/>
<path d="M406.599 769.045H326.297C326.297 769.045 320.419 765.912 319.141 762.287C318.212 759.652 318.379 757.82 319.141 755.131C320.226 751.306 322.451 749.731 325.502 747.181C329.445 743.885 332.436 742.84 337.428 741.615C341.811 740.54 344.464 740.388 348.956 740.82C352.443 741.155 357.702 742.808 357.702 742.808L401.431 751.951C401.431 751.951 399.145 756.163 399.046 759.107C398.966 761.48 401.046 762.611 402.226 764.672C403.373 766.675 406.599 769.045 406.599 769.045Z" fill="#ECB624"/>
<path d="M398.648 758.312C398.876 763.432 406.201 769.045 406.201 769.045L487.696 769.84C487.696 769.84 493.484 769.621 495.647 768.25C498.594 766.383 500.715 764.173 500.417 760.697C500.221 758.413 500.417 756.134 497.634 755.529C479.348 751.554 462.254 747.181 440.389 742.808C434.659 741.934 431.459 740.366 425.681 740.82C419.513 741.305 415.742 742.41 410.177 745.193C404.369 748.748 398.346 751.509 398.648 758.312Z" fill="#F7CB53"/>
<path d="M395.866 554.774C373.461 555.804 367.513 586.698 374.399 608.044C379.489 623.822 388.429 637.484 405.009 637.461C426.535 637.432 433.721 608.739 428.861 587.769C424.747 570.017 414.069 553.937 395.866 554.774Z" fill="#63C8C8"/>
<path d="M531.027 719.751L523.474 693.116C523.474 693.116 519.794 694.343 517.909 694.706C515.148 695.239 513.515 695.234 510.753 694.706C507.326 694.052 505.7 692.368 503.2 689.936C499.219 686.063 498.421 682.539 496.839 677.215C495.851 673.887 495.835 671.89 495.249 668.469C494.057 611.224 494.057 527.742 494.057 527.742C494.057 527.742 492.86 516.502 491.274 509.455C489.011 499.397 487.18 493.801 482.926 484.41C481.35 480.932 480.405 479.004 478.553 475.664C471.319 462.626 454.701 445.849 454.701 445.849L453.906 638.654C453.906 638.654 452.745 662.333 455.098 677.215C456.927 688.782 457.541 695.698 462.651 706.235C468.905 719.13 473.819 727.082 486.106 734.46C491.716 737.829 495.299 739.086 501.61 740.82C512.704 743.868 531.027 742.41 531.027 742.41L536.593 740.82L531.027 719.751Z" fill="#63C8C8"/>
<path d="M304.433 641.039L287.339 603.273L272.63 571.471L269.449 569.88L244.405 580.614V587.372L257.523 623.15L267.064 619.572L273.822 616.789H279.785L283.761 621.162L284.953 626.728L283.761 631.498L290.121 634.281L292.109 641.039L291.314 647.797L296.482 649.785L297.674 654.158L298.47 659.723L296.482 661.711L275.413 670.854L279.785 679.6L286.543 681.19L309.203 671.649L312.781 668.071V660.518L304.433 641.039Z" fill="#E62118"/>
<path d="M445.16 416.034C450.795 421.996 455.609 423.948 463.446 426.37C472.59 428.358 476.998 428.283 485.708 427.96C496.574 427.559 503.902 428.927 513.138 423.19C521.007 418.303 524.24 413.256 528.245 404.903C531.501 398.113 532.695 393.743 533.015 386.219C533.399 377.184 532.189 371.697 528.245 363.56C524.49 355.814 521.479 351.261 514.331 346.466C507.685 342.008 502.851 340.334 494.852 340.105C488.521 339.924 484.984 341.362 478.95 343.285C467.024 349.248 461.061 353.224 449.93 361.175C442.069 369.888 438.004 369.125 435.619 387.809C434.888 399.379 437.168 407.578 445.16 416.034Z" fill="#F7CB52"/>
<path d="M463.446 364.355C448.256 374.897 441.582 391.387 452.713 410.469C483.323 391.785 492.467 386.617 512.741 373.498C501.729 357.309 479.531 353.192 463.446 364.355Z" fill="#EEB524"/>
<path d="M216.975 575.048C216.975 575.048 216.18 584.986 215.385 591.744C214.838 592.87 214.655 593.618 213.795 594.527C212.696 595.689 211.753 596.074 210.217 596.515C207.346 597.338 202.664 595.322 202.664 595.322L191.135 567.495C191.135 567.495 188.851 563.116 189.545 560.339C189.882 558.992 191.135 557.159 191.135 557.159L200.278 554.376C200.278 554.376 202.271 555.248 203.459 555.966C206.56 557.842 210.217 562.327 210.217 562.327C210.217 562.327 211.807 563.519 213.397 563.519C214.304 563.113 215.385 561.532 215.385 561.532V551.196L218.167 546.823L265.474 526.946L289.326 527.741C289.326 527.741 298.867 532.114 305.625 535.692C306.207 537.947 306.823 539.658 305.625 541.655C304.889 542.882 304.111 543.377 302.842 544.04C300.228 545.407 298.238 543.955 295.289 544.04C290.933 544.166 288.437 544.007 284.158 544.835C281.311 545.387 277.003 546.823 277.003 546.823L277.798 554.376C277.798 554.376 278.195 560.339 277.798 563.917C277.522 564.404 277.317 564.647 277.003 565.11C276.251 566.214 276.039 567.035 275.015 567.892C273.425 568.687 270.642 569.483 270.642 569.483L236.852 583.794C236.852 583.794 232.693 584.249 230.093 583.794C224.029 582.731 216.975 575.048 216.975 575.048Z" fill="#AFBEC4"/>
<path d="M265.871 673.637C257.921 673.637 255.138 663.301 260.703 659.723C260.388 658.793 260.225 658.267 259.908 657.338C252.753 657.338 250.368 647.797 254.741 643.424C240.032 639.051 247.187 628.715 249.97 627.125C255.933 623.718 265.076 618.777 277.002 615.597C284.158 615.199 286.543 626.33 283.76 630.703C290.519 629.908 295.289 642.231 291.314 647.399C299.264 648.195 299.662 658.133 297.674 661.313C286.941 666.879 280.978 669.661 265.871 673.637Z" fill="#F7CB51"/>
<path d="M389.505 469.304C372.013 473.677 362.964 474.643 345.776 476.857C338.804 477.755 334.91 479.14 327.887 478.845C315.134 478.309 307.186 476.039 296.879 468.509C285.024 459.847 279.199 451.479 276.207 437.104C274.181 427.365 274.768 421.254 277.4 411.661C279.641 403.493 281.902 398.991 286.941 392.182C292.104 385.206 295.824 381.584 303.24 377.076C315.702 369.5 325.899 371.51 335.838 369.92C343.788 368.648 346.751 365.578 350.149 361.572C354.533 356.403 355.402 352.279 356.907 345.671C357.882 341.389 358.497 334.54 358.497 334.54L403.021 342.888C403.021 342.888 404.295 344.542 405.009 345.671C409.419 352.645 410.472 358.011 409.382 366.342C408.334 374.342 406.431 378.39 400.636 384.231C399.165 385.714 398.251 386.617 395.865 387.809C395.799 388.27 395.995 388.528 395.865 389.002C405.009 389.797 410.116 392.692 416.14 398.94C423.772 406.858 425.239 414.578 425.283 425.575C425.339 439.478 421.141 448.692 410.972 458.173C404.065 464.613 398.308 465.886 389.505 469.304Z" fill="#F7CC50"/>
<ellipse cx="360.882" cy="364.355" rx="7.15563" ry="6.75809" fill="#48B8AF"/>
<ellipse cx="382.349" cy="368.33" rx="7.15563" ry="6.75809" fill="#48B8AF"/>
<ellipse cx="306.818" cy="438.693" rx="11.926" ry="11.131" fill="#48B8AF"/>
<defs>
<filter id="filter0_f_18_418" x="357.787" y="305.198" width="178.63" height="177.194" filterUnits="userSpaceOnUse" color-interpolation-filters="sRGB">
<feFlood flood-opacity="0" result="BackgroundImageFix"/>
<feBlend mode="normal" in="SourceGraphic" in2="BackgroundImageFix" result="shape"/>
<feGaussianBlur stdDeviation="38.5" result="effect1_foregroundBlur_18_418"/>
</filter>
<filter id="filter1_b_18_418" x="400.501" y="365.359" width="83.0436" height="71.2415" filterUnits="userSpaceOnUse" color-interpolation-filters="sRGB">
<feFlood flood-opacity="0" result="BackgroundImageFix"/>
<feGaussianBlur in="BackgroundImageFix" stdDeviation="13.5"/>
<feComposite in2="SourceAlpha" operator="in" result="effect1_backgroundBlur_18_418"/>
<feBlend mode="normal" in="SourceGraphic" in2="effect1_backgroundBlur_18_418" result="shape"/>
</filter>
<filter id="filter2_i_18_418" x="427.501" y="392.359" width="29.0436" height="27.2415" filterUnits="userSpaceOnUse" color-interpolation-filters="sRGB">
<feFlood flood-opacity="0" result="BackgroundImageFix"/>
<feBlend mode="normal" in="SourceGraphic" in2="BackgroundImageFix" result="shape"/>
<feColorMatrix in="SourceAlpha" type="matrix" values="0 0 0 0 0 0 0 0 0 0 0 0 0 0 0 0 0 0 127 0" result="hardAlpha"/>
<feOffset dy="11"/>
<feGaussianBlur stdDeviation="5"/>
<feComposite in2="hardAlpha" operator="arithmetic" k2="-1" k3="1"/>
<feColorMatrix type="matrix" values="0 0 0 0 1 0 0 0 0 1 0 0 0 0 1 0 0 0 1 0"/>
<feBlend mode="normal" in2="shape" result="effect1_innerShadow_18_418"/>
</filter>
<filter id="filter3_i_18_418" x="345.862" y="428.03" width="31.0564" height="28.4363" filterUnits="userSpaceOnUse" color-interpolation-filters="sRGB">
<feFlood flood-opacity="0" result="BackgroundImageFix"/>
<feBlend mode="normal" in="SourceGraphic" in2="BackgroundImageFix" result="shape"/>
<feColorMatrix in="SourceAlpha" type="matrix" values="0 0 0 0 0 0 0 0 0 0 0 0 0 0 0 0 0 0 127 0" result="hardAlpha"/>
<feOffset dy="11"/>
<feGaussianBlur stdDeviation="5"/>
<feComposite in2="hardAlpha" operator="arithmetic" k2="-1" k3="1"/>
<feColorMatrix type="matrix" values="0 0 0 0 1 0 0 0 0 1 0 0 0 0 1 0 0 0 1 0"/>
<feBlend mode="normal" in2="shape" result="effect1_innerShadow_18_418"/>
</filter>
<filter id="filter4_di_18_418" x="332.797" y="441.481" width="42.8464" height="46.2202" filterUnits="userSpaceOnUse" color-interpolation-filters="sRGB">
<feFlood flood-opacity="0" result="BackgroundImageFix"/>
<feColorMatrix in="SourceAlpha" type="matrix" values="0 0 0 0 0 0 0 0 0 0 0 0 0 0 0 0 0 0 127 0" result="hardAlpha"/>
<feOffset dy="20"/>
<feGaussianBlur stdDeviation="9.5"/>
<feComposite in2="hardAlpha" operator="out"/>
<feColorMatrix type="matrix" values="0 0 0 0 0.283785 0 0 0 0 0.178889 0 0 0 0 0.933333 0 0 0 1 0"/>
<feBlend mode="normal" in2="BackgroundImageFix" result="effect1_dropShadow_18_418"/>
<feBlend mode="normal" in="SourceGraphic" in2="effect1_dropShadow_18_418" result="shape"/>
<feColorMatrix in="SourceAlpha" type="matrix" values="0 0 0 0 0 0 0 0 0 0 0 0 0 0 0 0 0 0 127 0" result="hardAlpha"/>
<feOffset dy="9"/>
<feGaussianBlur stdDeviation="1.5"/>
<feComposite in2="hardAlpha" operator="arithmetic" k2="-1" k3="1"/>
<feColorMatrix type="matrix" values="0 0 0 0 1 0 0 0 0 1 0 0 0 0 1 0 0 0 0.21 0"/>
<feBlend mode="normal" in2="shape" result="effect2_innerShadow_18_418"/>
</filter>
<filter id="filter5_i_18_418" x="232.418" y="780.682" width="11.318" height="16.6951" filterUnits="userSpaceOnUse" color-interpolation-filters="sRGB">
<feFlood flood-opacity="0" result="BackgroundImageFix"/>
<feBlend mode="normal" in="SourceGraphic" in2="BackgroundImageFix" result="shape"/>
<feColorMatrix in="SourceAlpha" type="matrix" values="0 0 0 0 0 0 0 0 0 0 0 0 0 0 0 0 0 0 127 0" result="hardAlpha"/>
<feOffset dy="11"/>
<feGaussianBlur stdDeviation="5"/>
<feComposite in2="hardAlpha" operator="arithmetic" k2="-1" k3="1"/>
<feColorMatrix type="matrix" values="0 0 0 0 1 0 0 0 0 1 0 0 0 0 1 0 0 0 1 0"/>
<feBlend mode="normal" in2="shape" result="effect1_innerShadow_18_418"/>
</filter>
<filter id="filter6_f_18_418" x="144.578" y="703.363" width="173.129" height="172.013" filterUnits="userSpaceOnUse" color-interpolation-filters="sRGB">
<feFlood flood-opacity="0" result="BackgroundImageFix"/>
<feBlend mode="normal" in="SourceGraphic" in2="BackgroundImageFix" result="shape"/>
<feGaussianBlur stdDeviation="38.5" result="effect1_foregroundBlur_18_418"/>
</filter>
<filter id="filter7_i_18_418" x="219.825" y="792.478" width="11.318" height="16.6951" filterUnits="userSpaceOnUse" color-interpolation-filters="sRGB">
<feFlood flood-opacity="0" result="BackgroundImageFix"/>
<feBlend mode="normal" in="SourceGraphic" in2="BackgroundImageFix" result="shape"/>
<feColorMatrix in="SourceAlpha" type="matrix" values="0 0 0 0 0 0 0 0 0 0 0 0 0 0 0 0 0 0 127 0" result="hardAlpha"/>
<feOffset dy="11"/>
<feGaussianBlur stdDeviation="5"/>
<feComposite in2="hardAlpha" operator="arithmetic" k2="-1" k3="1"/>
<feColorMatrix type="matrix" values="0 0 0 0 1 0 0 0 0 1 0 0 0 0 1 0 0 0 1 0"/>
<feBlend mode="normal" in2="shape" result="effect1_innerShadow_18_418"/>
</filter>
<filter id="filter8_b_18_418" x="222.902" y="473.989" width="78.1985" height="68.3652" filterUnits="userSpaceOnUse" color-interpolation-filters="sRGB">
<feFlood flood-opacity="0" result="BackgroundImageFix"/>
<feGaussianBlur in="BackgroundImageFix" stdDeviation="13.5"/>
<feComposite in2="SourceAlpha" operator="in" result="effect1_backgroundBlur_18_418"/>
<feBlend mode="normal" in="SourceGraphic" in2="effect1_backgroundBlur_18_418" result="shape"/>
</filter>
<filter id="filter9_i_18_418" x="249.902" y="500.989" width="24.1985" height="24.3652" filterUnits="userSpaceOnUse" color-interpolation-filters="sRGB">
<feFlood flood-opacity="0" result="BackgroundImageFix"/>
<feBlend mode="normal" in="SourceGraphic" in2="BackgroundImageFix" result="shape"/>
<feColorMatrix in="SourceAlpha" type="matrix" values="0 0 0 0 0 0 0 0 0 0 0 0 0 0 0 0 0 0 127 0" result="hardAlpha"/>
<feOffset dy="11"/>
<feGaussianBlur stdDeviation="5"/>
<feComposite in2="hardAlpha" operator="arithmetic" k2="-1" k3="1"/>
<feColorMatrix type="matrix" values="0 0 0 0 1 0 0 0 0 1 0 0 0 0 1 0 0 0 1 0"/>
<feBlend mode="normal" in2="shape" result="effect1_innerShadow_18_418"/>
</filter>
<filter id="filter10_di_18_418" x="235.861" y="517.749" width="40.8218" height="43.1899" filterUnits="userSpaceOnUse" color-interpolation-filters="sRGB">
<feFlood flood-opacity="0" result="BackgroundImageFix"/>
<feColorMatrix in="SourceAlpha" type="matrix" values="0 0 0 0 0 0 0 0 0 0 0 0 0 0 0 0 0 0 127 0" result="hardAlpha"/>
<feOffset dy="20"/>
<feGaussianBlur stdDeviation="9.5"/>
<feComposite in2="hardAlpha" operator="out"/>
<feColorMatrix type="matrix" values="0 0 0 0 0.283785 0 0 0 0 0.178889 0 0 0 0 0.933333 0 0 0 1 0"/>
<feBlend mode="normal" in2="BackgroundImageFix" result="effect1_dropShadow_18_418"/>
<feBlend mode="normal" in="SourceGraphic" in2="effect1_dropShadow_18_418" result="shape"/>
<feColorMatrix in="SourceAlpha" type="matrix" values="0 0 0 0 0 0 0 0 0 0 0 0 0 0 0 0 0 0 127 0" result="hardAlpha"/>
<feOffset dy="9"/>
<feGaussianBlur stdDeviation="1.5"/>
<feComposite in2="hardAlpha" operator="arithmetic" k2="-1" k3="1"/>
<feColorMatrix type="matrix" values="0 0 0 0 1 0 0 0 0 1 0 0 0 0 1 0 0 0 0.21 0"/>
<feBlend mode="normal" in2="shape" result="effect2_innerShadow_18_418"/>
</filter>
<filter id="filter11_di_18_418" x="241.847" y="519.801" width="40.8218" height="43.1899" filterUnits="userSpaceOnUse" color-interpolation-filters="sRGB">
<feFlood flood-opacity="0" result="BackgroundImageFix"/>
<feColorMatrix in="SourceAlpha" type="matrix" values="0 0 0 0 0 0 0 0 0 0 0 0 0 0 0 0 0 0 127 0" result="hardAlpha"/>
<feOffset dy="20"/>
<feGaussianBlur stdDeviation="9.5"/>
<feComposite in2="hardAlpha" operator="out"/>
<feColorMatrix type="matrix" values="0 0 0 0 0.283785 0 0 0 0 0.178889 0 0 0 0 0.933333 0 0 0 1 0"/>
<feBlend mode="normal" in2="BackgroundImageFix" result="effect1_dropShadow_18_418"/>
<feBlend mode="normal" in="SourceGraphic" in2="effect1_dropShadow_18_418" result="shape"/>
<feColorMatrix in="SourceAlpha" type="matrix" values="0 0 0 0 0 0 0 0 0 0 0 0 0 0 0 0 0 0 127 0" result="hardAlpha"/>
<feOffset dy="9"/>
<feGaussianBlur stdDeviation="1.5"/>
<feComposite in2="hardAlpha" operator="arithmetic" k2="-1" k3="1"/>
<feColorMatrix type="matrix" values="0 0 0 0 1 0 0 0 0 1 0 0 0 0 1 0 0 0 0.21 0"/>
<feBlend mode="normal" in2="shape" result="effect2_innerShadow_18_418"/>
</filter>
<filter id="filter12_di_18_418" x="247.405" y="517.749" width="40.8218" height="43.1899" filterUnits="userSpaceOnUse" color-interpolation-filters="sRGB">
<feFlood flood-opacity="0" result="BackgroundImageFix"/>
<feColorMatrix in="SourceAlpha" type="matrix" values="0 0 0 0 0 0 0 0 0 0 0 0 0 0 0 0 0 0 127 0" result="hardAlpha"/>
<feOffset dy="20"/>
<feGaussianBlur stdDeviation="9.5"/>
<feComposite in2="hardAlpha" operator="out"/>
<feColorMatrix type="matrix" values="0 0 0 0 0.283785 0 0 0 0 0.178889 0 0 0 0 0.933333 0 0 0 1 0"/>
<feBlend mode="normal" in2="BackgroundImageFix" result="effect1_dropShadow_18_418"/>
<feBlend mode="normal" in="SourceGraphic" in2="effect1_dropShadow_18_418" result="shape"/>
<feColorMatrix in="SourceAlpha" type="matrix" values="0 0 0 0 0 0 0 0 0 0 0 0 0 0 0 0 0 0 127 0" result="hardAlpha"/>
<feOffset dy="9"/>
<feGaussianBlur stdDeviation="1.5"/>
<feComposite in2="hardAlpha" operator="arithmetic" k2="-1" k3="1"/>
<feColorMatrix type="matrix" values="0 0 0 0 1 0 0 0 0 1 0 0 0 0 1 0 0 0 0.21 0"/>
<feBlend mode="normal" in2="shape" result="effect2_innerShadow_18_418"/>
</filter>
<filter id="filter13_b_18_418" x="472.113" y="250.645" width="82.1045" height="70.6838" filterUnits="userSpaceOnUse" color-interpolation-filters="sRGB">
<feFlood flood-opacity="0" result="BackgroundImageFix"/>
<feGaussianBlur in="BackgroundImageFix" stdDeviation="13.5"/>
<feComposite in2="SourceAlpha" operator="in" result="effect1_backgroundBlur_18_418"/>
<feBlend mode="normal" in="SourceGraphic" in2="effect1_backgroundBlur_18_418" result="shape"/>
</filter>
<filter id="filter14_i_18_418" x="499.113" y="277.645" width="28.1045" height="26.6838" filterUnits="userSpaceOnUse" color-interpolation-filters="sRGB">
<feFlood flood-opacity="0" result="BackgroundImageFix"/>
<feBlend mode="normal" in="SourceGraphic" in2="BackgroundImageFix" result="shape"/>
<feColorMatrix in="SourceAlpha" type="matrix" values="0 0 0 0 0 0 0 0 0 0 0 0 0 0 0 0 0 0 127 0" result="hardAlpha"/>
<feOffset dy="11"/>
<feGaussianBlur stdDeviation="5"/>
<feComposite in2="hardAlpha" operator="arithmetic" k2="-1" k3="1"/>
<feColorMatrix type="matrix" values="0 0 0 0 1 0 0 0 0 1 0 0 0 0 1 0 0 0 1 0"/>
<feBlend mode="normal" in2="shape" result="effect1_innerShadow_18_418"/>
</filter>
<filter id="filter15_i_18_418" x="507.227" y="294.337" width="9.78687" height="11.7698" filterUnits="userSpaceOnUse" color-interpolation-filters="sRGB">
<feFlood flood-opacity="0" result="BackgroundImageFix"/>
<feBlend mode="normal" in="SourceGraphic" in2="BackgroundImageFix" result="shape"/>
<feColorMatrix in="SourceAlpha" type="matrix" values="0 0 0 0 0 0 0 0 0 0 0 0 0 0 0 0 0 0 127 0" result="hardAlpha"/>
<feOffset dx="-2"/>
<feGaussianBlur stdDeviation="4.5"/>
<feComposite in2="hardAlpha" operator="arithmetic" k2="-1" k3="1"/>
<feColorMatrix type="matrix" values="0 0 0 0 1 0 0 0 0 1 0 0 0 0 1 0 0 0 0.5 0"/>
<feBlend mode="normal" in2="shape" result="effect1_innerShadow_18_418"/>
</filter>
<filter id="filter16_f_18_418" x="424.619" y="214.339" width="177.003" height="158.475" filterUnits="userSpaceOnUse" color-interpolation-filters="sRGB">
<feFlood flood-opacity="0" result="BackgroundImageFix"/>
<feBlend mode="normal" in="SourceGraphic" in2="BackgroundImageFix" result="shape"/>
<feGaussianBlur stdDeviation="38.5" result="effect1_foregroundBlur_18_418"/>
</filter>
<filter id="filter17_di_18_418" x="507.53" y="302.616" width="19.9649" height="22.1976" filterUnits="userSpaceOnUse" color-interpolation-filters="sRGB">
<feFlood flood-opacity="0" result="BackgroundImageFix"/>
<feColorMatrix in="SourceAlpha" type="matrix" values="0 0 0 0 0 0 0 0 0 0 0 0 0 0 0 0 0 0 127 0" result="hardAlpha"/>
<feOffset dy="11"/>
<feGaussianBlur stdDeviation="4.38372"/>
<feColorMatrix type="matrix" values="0 0 0 0 0.285052 0 0 0 0 0.179688 0 0 0 0 0.9375 0 0 0 1 0"/>
<feBlend mode="normal" in2="BackgroundImageFix" result="effect1_dropShadow_18_418"/>
<feBlend mode="normal" in="SourceGraphic" in2="effect1_dropShadow_18_418" result="shape"/>
<feColorMatrix in="SourceAlpha" type="matrix" values="0 0 0 0 0 0 0 0 0 0 0 0 0 0 0 0 0 0 127 0" result="hardAlpha"/>
<feOffset dy="4"/>
<feGaussianBlur stdDeviation="2"/>
<feComposite in2="hardAlpha" operator="arithmetic" k2="-1" k3="1"/>
<feColorMatrix type="matrix" values="0 0 0 0 1 0 0 0 0 1 0 0 0 0 1 0 0 0 0.44 0"/>
<feBlend mode="normal" in2="shape" result="effect2_innerShadow_18_418"/>
</filter>
<filter id="filter18_i_18_418" x="505.02" y="295.814" width="2.43005" height="6.43018" filterUnits="userSpaceOnUse" color-interpolation-filters="sRGB">
<feFlood flood-opacity="0" result="BackgroundImageFix"/>
<feBlend mode="normal" in="SourceGraphic" in2="BackgroundImageFix" result="shape"/>
<feColorMatrix in="SourceAlpha" type="matrix" values="0 0 0 0 0 0 0 0 0 0 0 0 0 0 0 0 0 0 127 0" result="hardAlpha"/>
<feOffset dy="4"/>
<feGaussianBlur stdDeviation="2"/>
<feComposite in2="hardAlpha" operator="arithmetic" k2="-1" k3="1"/>
<feColorMatrix type="matrix" values="0 0 0 0 1 0 0 0 0 1 0 0 0 0 1 0 0 0 0.44 0"/>
<feBlend mode="normal" in2="shape" result="effect1_innerShadow_18_418"/>
</filter>
<filter id="filter19_f_18_418" x="100" y="196" width="644" height="672" filterUnits="userSpaceOnUse" color-interpolation-filters="sRGB">
<feFlood flood-opacity="0" result="BackgroundImageFix"/>
<feBlend mode="normal" in="SourceGraphic" in2="BackgroundImageFix" result="shape"/>
<feGaussianBlur stdDeviation="25" result="effect1_foregroundBlur_18_418"/>
</filter>
<linearGradient id="paint0_linear_18_418" x1="-531.233" y1="-1262.62" x2="1791.69" y2="4005.34" gradientUnits="userSpaceOnUse">
<stop stop-color="#41B99D"/>
<stop offset="1" stop-color="#57B5D8"/>
</linearGradient>
<linearGradient id="paint1_linear_18_418" x1="445.481" y1="401.452" x2="454.263" y2="386.05" gradientUnits="userSpaceOnUse">
<stop stop-color="#FF9900"/>
<stop offset="1" stop-color="#FFEE94"/>
</linearGradient>
<linearGradient id="paint2_linear_18_418" x1="429.348" y1="408.061" x2="458.648" y2="386.15" gradientUnits="userSpaceOnUse">
<stop stop-color="white"/>
<stop offset="1" stop-color="white" stop-opacity="0.58"/>
</linearGradient>
<linearGradient id="paint3_linear_18_418" x1="347.838" y1="444.821" x2="379.168" y2="421.391" gradientUnits="userSpaceOnUse">
<stop stop-color="white"/>
<stop offset="1" stop-color="white" stop-opacity="0.58"/>
</linearGradient>
<linearGradient id="paint4_linear_18_418" x1="233.138" y1="786.779" x2="244.527" y2="778.232" gradientUnits="userSpaceOnUse">
<stop stop-color="white"/>
<stop offset="1" stop-color="white" stop-opacity="0.58"/>
</linearGradient>
<linearGradient id="paint5_linear_18_418" x1="229.86" y1="794.011" x2="236.91" y2="781.762" gradientUnits="userSpaceOnUse">
<stop stop-color="#FF9900"/>
<stop offset="1" stop-color="#FFEE94"/>
</linearGradient>
<linearGradient id="paint6_linear_18_418" x1="220.545" y1="798.575" x2="231.934" y2="790.028" gradientUnits="userSpaceOnUse">
<stop stop-color="white"/>
<stop offset="1" stop-color="white" stop-opacity="0.58"/>
</linearGradient>
<linearGradient id="paint7_linear_18_418" x1="265.66" y1="509.871" x2="273.399" y2="496.298" gradientUnits="userSpaceOnUse">
<stop stop-color="#FF9900"/>
<stop offset="1" stop-color="#FFEE94"/>
</linearGradient>
<linearGradient id="paint8_linear_18_418" x1="251.441" y1="514.072" x2="275.853" y2="495.816" gradientUnits="userSpaceOnUse">
<stop stop-color="white"/>
<stop offset="1" stop-color="white" stop-opacity="0.58"/>
</linearGradient>
<linearGradient id="paint9_linear_18_418" x1="500.9" y1="292.839" x2="529.253" y2="271.636" gradientUnits="userSpaceOnUse">
<stop stop-color="white"/>
<stop offset="1" stop-color="white" stop-opacity="0.58"/>
</linearGradient>
<linearGradient id="paint10_linear_18_418" x1="512.158" y1="304.973" x2="519.754" y2="294.487" gradientUnits="userSpaceOnUse">
<stop stop-color="#FF9900"/>
<stop offset="1" stop-color="#FFEE94"/>
</linearGradient>
<linearGradient id="paint11_linear_18_418" x1="517.161" y1="305.16" x2="518.305" y2="303.013" gradientUnits="userSpaceOnUse">
<stop stop-color="#FF9900"/>
<stop offset="1" stop-color="#FFEE94"/>
</linearGradient>
<linearGradient id="paint12_linear_18_418" x1="505.884" y1="298.358" x2="507.027" y2="296.211" gradientUnits="userSpaceOnUse">
<stop stop-color="#FF9900"/>
<stop offset="1" stop-color="#FFEE94"/>
</linearGradient>
</defs>
</svg>
