<svg width="561" height="561" viewBox="0 0 561 561" fill="none" xmlns="http://www.w3.org/2000/svg">
<rect width="561" height="561" fill="url(#paint0_linear_16_364)"/>
<mask id="mask0_16_364" style="mask-type:alpha" maskUnits="userSpaceOnUse" x="10" y="0" width="535" height="561">
<rect x="10" width="535" height="561" fill="url(#paint1_linear_16_364)"/>
</mask>
<g mask="url(#mask0_16_364)">
<path d="M159.457 519.926C159.91 520.832 160.779 522.947 161.157 523.891L162.856 525.59C163.8 524.458 165.462 521.739 164.555 519.926C163.649 518.113 164.933 516.149 165.688 515.394L170.22 508.597L171.353 501.799L175.885 495.002L177.018 488.771L183.249 480.84L187.78 478.008L193.445 474.043L199.109 472.343L209.306 470.644L213.837 467.811L223.467 462.713L229.132 461.014C231.964 461.958 237.855 464.299 238.762 466.112C239.668 467.925 242.538 469.888 243.86 470.644C244.615 470.077 246.352 468.378 247.259 466.112C248.392 463.28 255.189 461.014 256.889 459.314C258.248 457.955 259.721 456.105 260.287 455.349C258.21 454.783 253.83 453.65 252.923 453.65C251.79 453.65 246.126 453.65 244.993 452.517C243.86 451.384 247.259 447.419 247.259 445.72C247.259 444.36 248.014 441.754 248.392 440.621C248.014 438.167 247.259 432.578 247.259 429.859C247.259 426.46 248.392 419.096 248.392 417.963V413.998L251.79 410.599L256.889 407.767C258.588 407.011 262.1 405.274 262.553 404.368L264.819 399.836C265.385 398.137 266.632 394.738 267.085 394.738C267.651 394.738 276.148 390.773 276.715 390.773C277.168 390.773 281.813 389.64 284.079 389.073L291.443 393.039C293.142 391.717 296.654 389.073 297.107 389.073C297.56 389.073 303.716 385.675 306.737 383.975L309.569 379.444L312.402 373.779C312.024 372.646 310.929 370.267 309.569 369.814C308.21 369.361 305.227 365.848 303.905 364.149V359.617V348.855V344.323C303.905 342.963 305.038 339.225 305.604 337.525C306.359 336.581 308.097 334.58 309.003 334.127C310.136 333.56 312.402 330.728 312.402 329.029C312.402 327.669 311.646 324.308 311.269 322.797C311.458 321.476 311.949 318.719 312.402 318.266C312.968 317.699 311.269 312.035 311.269 310.902C311.269 309.769 309.003 298.44 309.003 297.307C309.003 296.4 310.514 297.684 311.269 298.44L317.5 301.838L321.465 304.671C323.353 306.748 327.356 311.128 328.263 312.035C329.169 312.941 331.661 315.056 332.794 316C336.004 317.322 342.651 319.965 343.557 319.965H348.655L349.788 316L360.551 310.902L366.216 306.937C368.859 304.104 374.259 298.213 374.712 297.307C375.279 296.174 375.279 289.376 374.146 288.243C373.24 287.337 373.768 281.446 374.146 278.613L376.412 272.949L383.776 270.116C386.419 270.494 391.933 271.249 392.839 271.249C393.972 271.249 395.672 272.949 396.804 272.949C397.711 272.949 401.336 270.305 403.036 268.984C403.791 266.907 405.301 262.526 405.301 261.62C405.301 260.713 408.323 255.577 409.833 253.123L410.966 249.724L417.764 242.36L420.596 238.395C422.295 235.94 426.147 230.011 427.96 225.933C429.093 223.1 429.659 223.1 429.659 220.834C429.659 218.568 433.624 216.303 434.191 215.17C434.757 214.037 430.226 207.239 429.659 206.673C429.206 206.22 430.603 201.952 431.359 199.875H434.757L442.688 202.141H449.485C451.185 202.141 452.884 199.875 454.583 198.742C456.283 197.609 460.815 197.043 461.947 194.777C462.854 192.964 465.346 192.511 466.479 192.511L474.41 193.644C476.864 194.022 481.887 194.777 482.34 194.777C482.907 194.777 485.739 196.477 487.438 197.043C488.798 197.496 493.292 195.721 495.369 194.777C497.068 194.022 500.467 192.172 500.467 190.812C500.467 189.113 509.53 187.98 509.53 187.413C509.53 186.96 514.44 183.826 516.894 182.315V178.35C516.139 175.329 514.062 168.607 511.796 165.888C508.964 162.489 506.131 163.055 504.999 161.923C504.092 161.016 502.733 159.279 502.166 158.524V155.125L506.131 151.726L509.53 146.061V142.663C510.286 140.963 511.796 137.338 511.796 136.432C511.796 135.525 513.684 133.033 514.628 131.9L511.796 128.501C510.097 128.124 506.358 127.368 504.999 127.368C503.299 127.368 503.299 124.536 502.166 123.403C501.033 122.27 501.033 118.871 500.467 117.738C500.014 116.832 499.145 117.361 498.767 117.738H495.369H489.704L487.438 114.906V110.374H485.739C483.851 109.808 480.074 108.448 480.074 107.542C480.074 106.409 479.508 104.143 478.941 102.444C478.488 101.084 475.731 101.122 474.41 101.311L472.144 102.444L469.311 107.542L463.647 108.675H457.416C455.339 107.731 450.845 105.843 449.485 105.843C448.126 105.843 448.919 104.71 449.485 104.143V102.444C448.352 101.311 445.86 99.0452 444.954 99.0452C443.821 99.0452 439.855 97.9123 438.156 96.7795C436.797 95.8732 436.079 94.8912 435.89 94.5135C436.646 93.7583 438.156 91.9079 438.156 90.5483C438.156 88.8488 437.023 87.716 435.89 86.0166C434.757 84.3172 433.058 84.3172 431.359 82.618C429.659 80.9187 426.827 82.618 424.561 82.618C422.295 82.618 424.561 80.352 424.561 77.5197C424.561 74.6874 426.26 73.5545 424.561 72.4215C423.202 71.5152 420.596 71.2887 419.463 71.2887V74.6875L417.764 77.5197C413.987 76.5756 406.208 74.6875 405.301 74.6875C404.169 74.6875 401.904 72.4231 400.771 71.2899L400.77 71.2887C399.637 70.1559 400.77 65.6241 400.77 64.4911C400.77 63.5846 403.036 61.0923 404.168 59.9594C406.057 59.5817 410.4 58.5999 412.665 57.6935C415.498 56.5606 418.896 53.1618 419.463 51.4625C419.916 50.103 418.519 48.6302 417.764 48.0637C416.819 46.3643 414.705 42.739 413.798 41.8326C412.892 40.9263 409.644 38.4339 408.134 37.3009H403.036C402.129 37.3009 399.259 35.7905 397.937 35.0352L395.672 30.5035C392.462 30.8812 385.589 31.4099 383.776 30.5035C381.51 29.3706 374.712 30.5035 373.013 30.5035C371.314 30.5035 362.817 32.2029 361.684 32.7694C360.778 33.2225 354.509 34.4687 351.488 35.0352L350.355 39.5669V45.2315C350.355 47.4974 348.655 52.029 348.089 54.8614C347.636 57.1272 346.012 61.4701 345.256 63.3583H343.557L340.725 65.6241V71.2887C339.97 72.044 338.346 73.7812 337.892 74.6875C337.326 75.8204 336.76 80.9186 336.193 82.618C335.627 84.3173 332.794 89.4155 332.794 92.2478C332.794 95.0801 331.661 96.213 331.661 96.7795C331.661 97.2327 332.417 99.2341 332.794 100.178C332.228 101.689 330.982 104.937 330.529 105.843C330.075 106.749 323.542 112.263 320.332 114.906L319.199 121.137C317.122 123.026 312.628 126.915 311.269 127.368C309.569 127.935 306.171 131.334 303.905 131.9C301.639 132.467 297.674 136.998 295.974 137.565C294.275 138.131 288.61 144.929 287.477 147.195C286.571 149.007 288.61 147.95 289.743 147.195H294.841C296.654 147.195 297.485 149.083 297.674 150.027C296.73 150.593 294.388 151.726 292.576 151.726C290.763 151.726 289.932 153.237 289.743 153.992C288.044 154.747 284.305 156.258 282.946 156.258C281.586 156.258 279.358 157.768 278.414 158.524C275.771 159.279 270.37 161.016 269.917 161.923C269.464 162.829 267.462 164.188 266.518 164.755C264.064 167.021 258.928 171.666 258.021 172.119C257.115 172.572 252.357 176.462 250.091 178.35L246.692 182.315L250.091 186.28V190.812H247.825L246.692 189.679L242.161 192.511C240.272 194.777 236.043 199.422 234.23 199.875C232.417 200.329 226.677 203.841 224.034 205.54L218.369 210.072L213.837 214.603L210.439 218.569L198.543 223.1L194.578 227.066L188.913 228.765H183.815L178.717 229.898L179.058 232.73L178.717 236.129C177.773 236.507 175.658 237.262 174.752 237.262C173.845 237.262 174.374 236.129 174.752 235.562C175.129 234.618 175.658 232.39 174.752 231.031C173.845 229.671 172.863 231.597 172.486 232.73H165.122C167.954 232.73 167.954 230.804 167.954 229.898C167.954 228.992 163.045 226.877 160.59 225.933L158.891 228.765L160.024 233.863L158.891 234.43C158.891 235.374 158.664 237.488 157.758 238.395C156.851 239.301 157.38 239.905 157.758 240.094V242.36L155.492 246.892C154.359 249.158 153.793 249.724 152.66 250.857C151.527 251.99 150.96 252.556 148.694 253.123C146.429 253.689 145.862 255.389 141.897 255.389C137.932 255.389 137.932 257.654 136.799 258.787C135.666 259.92 133.966 261.62 130.568 264.452C127.169 267.284 128.302 271.25 126.602 272.949C124.903 274.648 124.337 275.215 122.071 274.648C119.805 274.082 118.672 276.348 117.539 276.914C116.406 277.481 116.406 280.313 115.914 282.012C115.422 283.712 115.84 284.278 115.914 286.544C115.989 288.81 116.406 288.243 118.672 289.376C120.938 290.509 122.071 291.642 124.337 291.642C126.602 291.642 128.302 293.908 128.868 294.474C129.435 295.041 135.666 298.44 137.932 298.44C140.198 298.44 141.897 296.74 143.596 296.74C145.296 296.74 145.862 295.607 148.694 293.908C151.527 292.209 153.793 289.994 157.758 288.243C161.723 286.492 162.29 286.544 165.122 284.845C167.954 283.145 169.654 282.012 170.786 282.012H175.885C176.791 282.012 177.773 283.9 178.15 284.845C178.15 285.789 177.697 287.79 175.885 288.243C173.619 288.81 174.185 286.544 173.619 286.544H170.786H167.954L163.422 289.376L160.59 291.642C160.401 292.209 159.797 293.795 158.891 295.607C157.984 297.42 157.003 297.118 156.625 296.74L155.492 299.573C154.926 301.272 153.566 304.897 152.66 305.804C151.527 306.937 148.694 309.202 141.897 305.804C139.065 303.538 139.631 305.804 137.932 306.937C136.232 308.069 137.932 310.902 136.799 312.035C135.666 313.168 135.666 313.168 132.834 310.902C130.001 308.636 131.701 308.069 130.568 304.671C129.435 301.272 129.435 300.705 128.302 298.44C127.396 296.627 125.281 297.684 124.337 298.44C125.092 299.006 126.602 300.479 126.602 301.838V309.202C126.602 312.035 125.47 312.601 124.337 314.3C123.204 316 120.938 316.566 118.672 316C116.859 315.547 114.14 317.322 113.007 318.266L114.14 322.797L115.273 325.063L118.672 326.763L118.672 326.763C119.806 327.329 123.204 329.029 124.337 329.029C125.47 329.029 128.868 330.728 130.568 330.728C132.267 330.728 135.666 330.161 137.932 329.029C139.744 328.122 141.331 328.651 141.897 329.029V331.861C142.463 332.805 144.049 335.033 145.862 336.393C146.995 335.26 148.694 334.693 152.66 331.861C155.832 329.595 155.87 331.672 155.492 332.994C154.926 334.127 153.793 336.619 153.793 337.525C153.793 338.432 153.037 340.924 152.66 342.057L153.793 344.323V348.855C153.793 349.761 150.394 350.365 148.694 350.554C148.128 348.666 146.768 344.323 145.862 342.057C144.956 339.791 143.974 339.602 143.596 339.791L141.897 342.057L139.631 346.022C139.065 346.966 137.705 349.421 136.799 351.687C135.666 354.519 135.099 355.086 133.966 355.652C132.833 356.219 132.267 359.617 130.568 361.883C128.868 364.149 124.903 367.548 122.071 369.247C119.238 370.947 118.106 373.779 116.406 374.912C115.047 375.818 111.308 376.422 109.609 376.611C108.287 377.744 105.643 380.237 105.643 381.143C105.643 382.276 107.343 384.542 107.343 385.675V389.073C107.343 389.98 105.077 391.339 103.944 391.906C103.566 392.472 102.698 393.832 102.245 394.738C101.678 395.871 101.112 398.137 101.112 399.836C101.112 401.536 99.4124 405.501 98.2794 405.501H96.0136C95.2583 406.067 93.6344 407.313 93.1812 407.767C92.7281 408.22 90.349 410.977 89.2161 412.298V417.963C89.2161 419.776 84.6844 423.628 82.4186 425.327L80.7191 427.026L75.6209 429.859C74.488 430.425 71.769 431.671 69.9564 432.124C67.6907 432.691 67.6905 433.257 66.5576 434.957C65.4246 436.656 65.4246 437.223 64.8582 439.488C64.2917 441.754 62.5924 441.754 62.5924 442.887C62.5924 444.02 60.893 444.587 59.76 445.72C58.8537 446.626 56.739 447.23 55.7949 447.419C54.0955 447.797 50.017 448.665 47.298 449.118C43.8992 449.685 41.6334 451.951 40.5004 453.65C39.5941 455.009 40.1228 456.86 40.5004 457.615L42.7663 459.314C43.5216 459.126 45.4853 458.861 47.298 459.314C49.5638 459.881 50.1303 460.447 50.6967 461.014C51.2632 461.58 54.662 462.713 55.7949 463.846C56.9278 464.979 59.7601 464.979 62.5924 466.112C65.4247 467.245 65.9912 466.679 69.9564 467.811C73.9216 468.944 74.4881 469.511 76.754 470.644C79.0198 471.777 81.2856 474.043 82.4186 475.175C83.5515 476.308 83.5515 476.875 84.118 478.008C84.6844 479.141 87.5167 481.973 89.2161 484.805C90.5756 487.071 93.559 488.393 94.8807 488.771C96.0136 489.715 98.5061 491.603 99.4124 491.603C100.319 491.603 100.923 492.358 101.112 492.736C101.867 493.869 103.491 496.248 103.944 496.701C104.397 497.154 105.266 499.156 105.643 500.1C106.21 501.233 107.343 503.725 107.343 504.631C107.343 505.538 108.853 507.653 109.609 508.597C111.497 510.296 115.5 513.808 116.406 514.261C117.313 514.714 119.427 515.205 120.371 515.394C122.448 516.338 127.056 518.227 128.868 518.227H135.099C137.176 517.66 141.444 516.527 141.897 516.527H152.093C153.793 516.527 158.891 518.793 159.457 519.926Z" fill="#63C8C8"/>
<path d="M423.995 95.0801V94.5137L424.561 92.8142C424.183 92.8142 423.315 92.7009 422.862 92.2477C422.295 91.6813 420.596 91.6813 420.596 91.1148C420.596 90.6617 419.085 90.1707 418.33 89.9819L415.498 91.1148L413.232 90.5484H409.267L405.868 90.5484L404.735 88.849L403.602 88.2825L400.77 86.0167L395.671 83.7509L393.972 83.1844L391.14 82.6179L386.608 82.0514L386.042 81.485L384.342 80.9185H383.209L381.51 80.3521V79.7857L380.377 79.2191H378.111L376.412 78.6527C375.657 78.275 374.033 77.5198 373.579 77.5198C373.013 77.5198 371.88 76.3868 370.747 76.3868C369.841 76.3868 369.237 75.6316 369.048 75.2539L367.348 74.6875H363.95H361.684H357.719H355.453L351.488 72.9881L349.222 72.4216L346.389 70.7222L344.124 69.0228L343.557 68.4564L342.991 66.757V65.0576L342.424 64.4911L341.858 65.0576V65.6241L342.424 66.757L343.557 69.0228L344.124 69.5893C344.501 69.9669 345.37 70.7222 345.823 70.7222C346.389 70.7222 346.956 71.2887 347.522 71.8551C348.089 72.4216 349.222 73.5545 350.355 74.121C351.488 74.6875 351.488 74.121 353.187 74.6875C354.886 75.2539 354.886 75.2539 356.019 75.2539L359.418 75.254H362.817C363.383 75.254 365.083 74.6875 365.649 75.254C366.215 75.8204 367.915 75.8204 368.481 76.3869C369.048 76.9534 371.88 77.5198 372.447 77.5198C373.013 77.5198 373.013 78.6527 373.579 78.6527C374.146 78.6527 375.279 79.7857 375.845 79.7857H378.678H380.377C380.943 79.7857 380.377 80.3521 380.943 80.9186C381.51 81.485 382.076 81.485 383.209 81.485C384.342 81.485 384.909 82.618 385.475 82.618C386.042 82.618 389.44 83.1844 390.007 83.1844C390.573 83.1844 391.14 83.1844 391.706 83.7509C392.273 84.3174 392.839 83.7509 393.406 84.3174C393.972 84.8838 395.105 84.8838 396.238 85.4503C397.371 86.0167 397.937 86.0167 399.07 86.0167C400.203 86.0167 400.77 86.5832 401.336 87.1497C401.903 87.7161 402.469 87.7161 403.035 88.2826C403.602 88.849 403.602 89.4155 404.168 89.4155C404.622 89.4155 404.735 90.1708 404.735 90.5484C405.112 90.7372 405.981 91.1149 406.434 91.1149H407.567H409.833C410.286 91.1149 412.288 91.4925 413.232 91.6813H414.931C415.12 91.8702 415.498 92.3611 415.498 92.8143C415.498 93.2674 416.253 93.3807 416.631 93.3807L418.33 95.0801L420.029 95.6466H422.295L423.995 95.0801Z" fill="#49B8B1"/>
<path d="M242.16 270.683L242.727 271.249V269.55L243.293 268.417L244.426 267.284H245.559C246.314 267.284 247.825 267.398 247.825 267.851C247.825 268.304 248.958 268.039 249.524 267.851H251.224L254.056 266.718L256.888 265.018L260.287 263.885L261.987 265.018V263.885C262.553 263.319 263.686 262.073 263.686 261.62C263.686 261.166 264.441 260.298 264.819 259.92L267.085 258.787L268.218 256.521V255.389L269.351 253.689C269.539 253.123 269.804 251.99 269.351 251.99C268.784 251.99 268.784 251.423 268.218 250.857C267.651 250.29 268.218 249.724 267.651 249.157C267.198 248.704 267.84 248.213 268.218 248.025L269.917 245.192H271.616L273.316 245.759C273.882 246.136 275.128 246.892 275.582 246.892C276.035 246.892 276.903 247.269 277.281 247.458L279.547 246.892L281.246 246.325L282.379 245.759L285.211 245.192C285.967 244.815 287.704 244.059 288.61 244.059C289.743 244.059 292.009 244.059 292.575 244.626C293.142 245.192 294.275 244.626 294.841 245.192C295.408 245.759 298.24 245.759 298.807 245.759H301.639L306.171 246.325L307.87 246.892H309.569H312.402H314.101H315.234L317.5 245.759C318.821 245.57 321.578 245.192 322.031 245.192C322.485 245.192 324.486 244.815 325.43 244.626H326.563H328.829H329.962C330.34 244.815 331.095 245.306 331.095 245.759C331.095 246.212 331.85 246.325 332.228 246.325H333.927H336.759L339.592 246.892C339.969 247.08 340.838 247.458 341.291 247.458C341.744 247.458 342.613 248.213 342.99 248.591L343.557 248.025L340.725 246.892C339.592 246.514 337.213 245.759 336.759 245.759H332.228L331.661 244.626C330.717 244.248 328.716 243.606 328.263 244.059C327.696 244.626 325.43 244.059 324.864 244.059C324.297 244.059 322.031 244.626 321.465 244.626C321.012 244.626 319.01 245.003 318.066 245.192L315.234 246.325H311.269H309.569C309.003 246.136 307.87 245.645 307.87 245.192C307.87 244.739 306.737 244.626 306.171 244.626H304.471C303.905 244.437 302.772 243.946 302.772 243.493C302.772 243.04 300.884 243.304 299.939 243.493L297.674 242.926H293.708C293.142 242.926 292.009 241.227 292.009 240.661C292.009 240.207 292.764 240.472 293.142 240.661C293.897 240.472 295.748 239.981 297.107 239.528C298.467 239.074 299.562 238.584 299.939 238.395L299.373 237.828H297.107H295.408L292.575 238.961C292.387 238.772 291.896 238.395 291.443 238.395C290.989 238.395 289.743 237.262 289.177 236.695L288.044 237.828C287.666 238.206 286.798 239.188 286.344 240.094C285.891 241 285.778 241.605 285.778 241.793C285.211 242.36 283.965 243.493 283.512 243.493C282.946 243.493 281.813 244.059 281.246 244.059C280.793 244.059 279.169 244.437 278.414 244.626L277.281 244.059H275.582L273.882 243.493L273.316 242.926L271.616 241.793H270.483L268.784 242.926L268.218 243.493L267.085 244.626L265.952 245.759C265.763 246.136 265.272 246.892 264.819 246.892C264.252 246.892 263.686 249.157 263.686 249.724C263.686 250.29 263.686 250.857 264.252 251.423C264.819 251.99 265.385 251.99 265.385 252.556C265.385 253.009 265.763 253.5 265.952 253.689V254.256L264.819 255.389L263.119 257.654L261.987 258.787L260.287 260.487L259.721 261.053H258.021L256.888 260.487H255.755C255.378 261.053 254.623 262.299 254.623 262.753C254.623 263.206 254.245 262.941 254.056 262.753L252.357 263.319L250.657 264.452L250.091 265.585L249.524 266.718V267.284H247.825L244.993 266.718H243.86L243.293 267.284L242.727 268.984L242.16 270.683Z" fill="#49B8B1"/>
<path d="M178.15 287.677L178.717 284.845L180.416 285.411C181.549 285.411 184.042 285.298 184.948 284.844C186.081 284.278 188.347 284.278 188.913 283.712C189.366 283.258 190.99 282.39 191.745 282.012L195.144 279.746C195.144 279.746 196.844 278.613 197.41 278.047C197.863 277.594 199.487 276.348 200.242 275.781L204.208 276.348L205.341 275.781L207.04 274.648C208.173 274.459 210.552 274.082 211.005 274.082C211.572 274.082 213.837 274.648 214.97 274.648C216.103 274.648 221.768 274.082 223.467 274.648C225.167 275.215 225.733 273.515 226.3 272.949C226.753 272.496 227.621 270.872 227.999 270.117L230.265 268.984C231.02 269.361 232.644 270.117 233.097 270.117H238.195H241.594L244.993 273.515C245.559 274.271 246.805 275.894 247.259 276.348L248.958 278.047H252.923C253.49 278.425 254.623 279.293 254.623 279.746C254.623 280.313 258.021 281.446 259.154 282.012C260.061 282.465 261.42 284.089 261.987 284.844C262.931 285.222 264.819 286.091 264.819 286.544C264.819 286.997 265.952 287.866 266.518 288.243C268.595 289.187 272.863 291.076 273.316 291.076C273.882 291.076 276.148 290.509 277.281 290.509C278.414 290.509 281.246 289.943 281.813 289.943H286.911H289.743C290.65 289.943 291.254 289.187 291.443 288.81L296.541 288.243L299.373 289.943C299.94 290.32 301.186 291.189 301.639 291.642C302.092 292.095 303.338 292.586 303.905 292.775H308.436H313.535L316.367 291.076C316.933 291.453 318.18 292.208 318.633 292.208C319.199 292.208 317.5 293.341 316.933 293.341C316.48 293.341 315.612 294.474 315.234 295.041L314.101 296.174L315.234 297.307L317.5 299.572L320.332 300.705L323.731 302.971L324.297 305.237C324.675 305.426 325.544 305.917 325.997 306.37C326.45 306.823 327.696 307.314 328.263 307.503L330.528 308.636L333.927 310.335L336.193 312.601C336.76 313.168 337.892 314.867 338.459 315.433L340.158 317.133C340.725 317.699 343.557 317.133 344.124 317.133C344.69 317.133 346.389 316 346.389 315.433C346.389 314.98 346.767 313.734 346.956 313.168L350.355 312.601C351.676 312.035 354.433 310.788 354.886 310.335C355.339 309.882 356.963 308.636 357.719 308.069H359.984L358.852 309.769L356.019 311.468L349.222 315.433L347.522 318.266L342.991 318.832L338.459 317.699C337.326 316.755 335.06 314.754 335.06 314.3C335.06 313.847 333.55 313.356 332.794 313.168L330.528 311.468L326.563 309.202L323.164 305.804L321.465 303.538L314.101 299.006L312.402 297.873L310.136 295.607L308.436 296.174V300.139L309.003 304.104L308.436 308.069L310.136 310.902L310.702 313.734V315.433V318.266L310.136 318.832H309.003L307.87 315.433L306.737 310.902V304.104L307.304 297.307V295.041L304.471 293.908L299.94 293.341L297.674 291.076C297.107 290.887 295.861 290.509 295.408 290.509C294.841 290.509 291.443 292.208 290.876 292.208H289.177H284.079L280.68 292.775H273.316L272.749 292.208C271.994 292.02 270.37 291.642 269.917 291.642C269.351 291.642 265.952 289.943 265.385 289.943C264.932 289.943 262.931 288.054 261.987 287.11C261.987 287.11 259.154 285.977 259.154 285.411C259.154 284.844 258.021 284.278 257.455 283.712L255.189 281.446L252.923 280.313H250.657L248.392 279.746L244.426 277.48V275.781L242.161 273.515L241.028 272.382H238.195L234.797 271.816L231.964 271.249L229.698 271.816V273.515L227.433 275.215L224.034 275.781L222.334 276.914L218.369 276.348C217.236 276.348 214.857 276.234 214.404 275.781C213.837 275.215 211.572 275.781 211.005 275.781C210.552 275.781 208.928 276.159 208.173 276.348L206.473 277.481H204.208C203.754 277.481 202.508 277.103 201.942 276.914L200.809 277.481L198.543 279.746C197.977 280.313 197.41 281.446 196.844 282.012C196.277 282.579 195.711 283.712 195.144 283.712C194.691 283.712 193.822 284.467 193.445 284.845L192.312 285.411L190.613 284.845L188.913 285.977L187.78 287.11H185.514L183.249 287.677H180.983L178.717 288.243L178.15 287.677Z" fill="#49B8B1"/>
<path d="M132.834 441.754L133.4 442.887L132.267 441.754L131.134 440.055L131.701 438.355V436.656L132.267 434.39V432.691L130.568 434.39L128.868 434.957L129.435 432.691V430.425V428.159H130.568L131.701 428.726V425.327V422.495L133.4 419.096L135.099 415.697L136.799 412.865L139.065 409.466V407.2L138.498 403.801L140.198 402.102L142.463 400.403L144.729 399.27L145.862 397.004V393.605L148.128 392.472H150.394L152.093 391.339L153.226 389.64L155.492 389.073L158.324 388.507H160.59L161.157 385.675L161.723 382.276V379.443L161.157 377.744L158.891 373.779L156.625 369.814L158.324 366.981V364.149L157.758 361.317V358.484L156.059 357.351L153.226 357.918L151.527 357.351L150.394 355.652V353.953L152.093 352.82L151.527 351.687L150.394 351.12L152.093 350.554L153.226 352.253L151.527 355.086L153.226 357.351L155.492 356.785L158.324 357.918V360.75L158.891 363.583V366.981L157.191 369.814L159.457 373.779C160.213 374.723 161.723 376.724 161.723 377.178C161.723 377.631 162.101 379.632 162.29 380.576L161.723 384.542V388.507C161.346 388.696 160.477 389.073 160.024 389.073H157.191L153.226 390.206L152.093 392.472L147.562 393.039C147.373 393.605 146.995 394.851 146.995 395.304C146.995 395.758 146.618 397.759 146.429 398.703L144.163 400.403L142.463 400.969L140.764 402.102L139.631 404.934V408.899L137.365 412.865L133.967 418.529L132.834 421.928L132.267 425.327V429.292L132.834 429.859L133.4 427.593L135.099 428.159L134.533 429.292V430.425L135.666 429.859L136.799 429.292L137.365 430.425L136.232 431.558H135.099H133.967V432.691L133.4 433.824L132.834 435.523L132.267 437.223L131.701 439.488L132.267 441.188L132.834 441.754Z" fill="#49B8B1"/>
<path d="M296.541 373.212L294.275 373.779H293.142L292.576 372.646V372.08H293.709L294.275 371.513L293.709 370.38H293.142H291.443L290.31 369.814V369.247V368.114L291.443 367.548V366.981L290.31 366.415L289.177 365.848L289.743 365.282V364.149L290.31 363.583H291.443L292.009 364.716L293.142 366.415L294.841 367.548V368.681L295.974 369.247L297.674 369.814V370.947V371.513V373.212H296.541Z" fill="#49B8B1"/>
<path d="M161.157 429.292V430.425L159.457 428.726L158.891 427.593V425.893V424.194L157.191 423.627L158.891 423.061L160.59 421.928L162.856 421.362L163.989 423.061L165.122 424.194L164.555 425.327L162.856 425.893L161.723 425.327L161.157 427.026V429.292Z" fill="#49B8B1"/>
<path d="M240.461 331.294L237.629 331.861H235.929L233.664 335.26L230.265 336.392L228.565 335.826L226.866 334.693L225.733 332.994L221.201 329.028L219.502 325.63L216.103 320.532L213.837 317.699L212.138 313.734L209.306 311.468L204.208 310.335L199.109 309.769L194.011 310.335L191.179 308.636L187.78 305.237L183.815 301.838L180.416 297.873L177.584 295.041L175.885 292.775L174.185 288.81L175.318 289.376L175.885 290.509L178.717 295.041C180.416 296.551 183.815 299.686 183.815 300.139C183.815 300.705 188.913 304.104 189.48 305.237C189.933 306.143 191.557 307.881 192.312 308.636L197.977 308.069L201.375 309.202H204.774C205.68 309.202 208.928 309.958 210.439 310.335C210.816 311.09 211.685 312.714 212.138 313.168C212.705 313.734 213.837 317.133 214.404 317.133C214.857 317.133 215.726 318.266 216.103 318.832L218.936 321.664L219.502 324.497L222.334 328.462L225.167 330.728L226.866 332.994L227.999 335.26H231.964L233.097 334.127L235.929 330.728L236.496 329.595H238.762L241.594 328.462H247.825C248.278 328.462 250.28 327.707 251.224 327.329L254.056 325.63L258.588 323.364L261.987 322.231L265.385 321.098L270.484 320.532L273.882 319.965L275.015 321.664L277.281 322.231L279.547 324.497L280.113 326.763C280.302 327.329 280.793 328.575 281.246 329.028C281.7 329.482 281.813 330.35 281.813 330.728L283.512 332.427C283.965 332.88 284.456 333.749 284.645 334.127H283.512L281.813 332.427L279.547 330.161C279.094 329.708 278.981 326.951 278.981 325.63L277.281 325.063C276.715 324.686 275.582 323.817 275.582 323.364C275.582 322.911 274.449 322.042 273.882 321.664L271.617 322.231L269.917 321.664L264.253 322.231L261.987 323.364L259.721 324.497L256.322 326.763L256.889 327.329L258.021 329.028L256.889 329.595L255.756 327.896H253.49L250.091 329.028L247.825 329.595L248.958 331.294L251.224 332.427L253.49 334.693L252.923 335.26L249.525 332.994L246.126 330.161L244.426 330.728L240.461 331.294Z" fill="#49B8B1"/>
<path d="M230.265 318.832L230.831 317.699C231.209 317.322 232.077 316.566 232.531 316.566C233.097 316.566 234.23 316 234.797 315.433C235.25 314.98 236.874 314.867 237.629 314.867H239.895V313.734L242.16 312.601L244.426 312.035L246.692 310.335L244.993 310.902L241.594 312.035L238.762 313.168L234.797 314.3L232.531 315.433H229.698L228.565 316.566L229.132 318.266L230.265 318.832Z" fill="#49B8B1"/>
<path d="M175.885 365.848L172.486 363.583L171.919 363.016L173.619 361.883L175.885 361.317L176.451 360.184H175.318L173.052 360.75L170.786 361.883L168.521 362.45L169.087 363.016L170.22 364.149L171.919 365.848L173.052 366.981L175.318 367.548L177.017 366.981L175.885 365.848Z" fill="#49B8B1"/>
<path d="M167.388 383.975L164.555 382.842L166.821 381.709L169.087 381.143H171.919V382.842H170.786L167.388 383.975Z" fill="#49B8B1"/>
<path d="M173.619 398.703L172.486 397.57L173.052 397.004H173.619H174.752L177.017 398.137L178.717 398.703L178.15 399.27L177.017 399.836L175.884 400.969L174.752 401.536L174.185 400.403L173.619 398.703Z" fill="#49B8B1"/>
<path d="M198.543 395.304L199.109 393.039V392.472L199.676 393.039L200.242 395.871L200.809 398.137H202.508H203.641L204.774 399.27L205.907 400.969L204.774 401.535L204.208 400.969L202.508 399.27L201.375 400.403L200.809 401.535L199.676 402.668L197.977 400.969L196.844 399.836L198.543 398.137V397.004V395.304Z" fill="#49B8B1"/>
<path d="M98.2794 408.333L99.4123 406.634L99.9788 406.067L100.545 406.634L99.4123 407.2L98.8459 408.333L99.9788 411.165L99.4123 412.298L98.8459 414.564V416.263L99.9788 419.662L100.545 423.627L99.9788 425.893V428.159L101.112 429.859L102.245 430.991L102.811 432.691L102.245 434.39L101.678 436.656L102.811 437.789L104.51 438.355L105.643 439.488L106.21 441.754L107.909 442.887H109.042V440.621L109.609 438.922L111.874 437.789L112.441 439.488V441.754H113.574L115.84 440.621L116.406 441.754L118.672 442.321H122.071L123.77 443.454L126.036 445.153L127.735 447.985V451.384L128.302 455.916L127.735 461.014V464.413V465.546L126.602 464.979L127.169 459.881L127.735 453.65L127.169 447.985L125.47 445.153L123.77 444.587L122.071 444.02L119.805 444.587V445.719H118.672H116.973L115.84 446.286L114.707 447.985C114.329 447.608 113.574 446.739 113.574 446.286C113.574 445.833 112.063 444.587 111.308 444.02C110.93 444.587 110.175 445.833 110.175 446.286C110.175 446.739 109.42 448.363 109.042 449.118H108.476L107.909 447.419L109.042 444.02L107.909 443.454L106.21 442.887L105.077 439.488L103.378 438.922L101.678 438.355L101.112 436.656L102.245 433.824L101.678 431.558L99.9788 429.292L99.4123 427.026L99.9788 424.194L99.4123 420.795L98.8459 418.529L98.2794 413.998L99.4123 411.732L98.8459 410.599L98.2794 408.333Z" fill="#49B8B1"/>
<g filter="url(#filter0_f_16_364)">
<rect x="288.209" y="186.343" width="19.483" height="18.3465" rx="9.17327" fill="#FFEF9A"/>
</g>
<path d="M306.393 196.978C306.393 201.641 302.613 205.421 297.951 205.421C293.288 205.421 289.508 201.641 289.508 196.978C289.508 192.315 293.288 188.535 297.951 188.535C302.613 188.535 306.393 192.315 306.393 196.978Z" fill="url(#paint2_linear_16_364)"/>
<g filter="url(#filter1_b_16_364)">
<g filter="url(#filter2_i_16_364)">
<path d="M300.183 200.448C300.234 200.157 300.261 199.858 300.261 199.552C300.261 196.696 297.924 194.38 295.041 194.38C292.897 194.38 291.056 195.66 290.252 197.49C289.6 196.933 288.755 196.597 287.831 196.597C285.772 196.597 284.103 198.269 284.103 200.332C284.103 200.447 284.108 200.561 284.118 200.673C283.127 201.154 282.445 202.162 282.445 203.329C282.445 204.961 283.781 206.284 285.428 206.284H299.515C301.163 206.284 302.498 204.961 302.498 203.329C302.498 201.924 301.509 200.748 300.183 200.448Z" fill="url(#paint3_linear_16_364)"/>
</g>
</g>
<g filter="url(#filter3_i_16_364)">
<path d="M239.599 230.03C239.661 229.674 239.694 229.307 239.694 228.933C239.694 225.434 236.831 222.597 233.299 222.597C230.673 222.597 228.417 224.165 227.432 226.407C226.634 225.724 225.599 225.312 224.467 225.312C221.944 225.312 219.899 227.361 219.899 229.889C219.899 230.029 219.905 230.169 219.918 230.306C218.704 230.895 217.869 232.131 217.869 233.56C217.869 235.559 219.505 237.18 221.523 237.18H238.78C240.799 237.18 242.435 235.559 242.435 233.56C242.435 231.839 241.223 230.398 239.599 230.03Z" fill="url(#paint4_linear_16_364)"/>
</g>
<g filter="url(#filter4_di_16_364)">
<path d="M224.48 233.237C223.033 235.141 221.008 238.948 224.48 238.948C227.951 238.948 225.926 235.141 224.48 233.237Z" fill="#00BCFF"/>
</g>
<path d="M235.746 233.237C234.299 235.141 232.274 238.948 235.746 238.948C239.217 238.948 237.192 235.141 235.746 233.237Z" fill="#00BCFF"/>
<path d="M230.347 241.139C228.901 243.042 226.876 246.85 230.347 246.85C233.819 246.85 231.794 243.042 230.347 241.139Z" fill="#00BCFF"/>
<g filter="url(#filter5_i_16_364)">
<path d="M136.052 504.247C136.075 504.118 136.087 503.985 136.087 503.849C136.087 502.578 135.043 501.548 133.756 501.548C132.799 501.548 131.977 502.117 131.618 502.932C131.327 502.684 130.95 502.534 130.538 502.534C129.618 502.534 128.873 503.278 128.873 504.196C128.873 504.247 128.875 504.298 128.88 504.348C128.438 504.561 128.133 505.01 128.133 505.529C128.133 506.255 128.729 506.844 129.465 506.844H135.754C136.489 506.844 137.086 506.255 137.086 505.529C137.086 504.904 136.644 504.381 136.052 504.247Z" fill="url(#paint5_linear_16_364)"/>
</g>
<g filter="url(#filter6_f_16_364)">
<rect x="119.559" y="501.296" width="15.1312" height="14.2486" rx="7.12429" fill="#FFEF9A"/>
</g>
<path d="M133.807 508.42C133.807 512.146 130.815 515.166 127.124 515.166C123.433 515.166 120.441 512.146 120.441 508.42C120.441 504.694 123.433 501.674 127.124 501.674C130.815 501.674 133.807 504.694 133.807 508.42Z" fill="url(#paint6_linear_16_364)"/>
<g filter="url(#filter7_i_16_364)">
<path d="M126.091 513.578C126.113 513.449 126.125 513.316 126.125 513.18C126.125 511.909 125.082 510.879 123.795 510.879C122.838 510.879 122.016 511.448 121.657 512.263C121.366 512.015 120.989 511.865 120.576 511.865C119.657 511.865 118.912 512.609 118.912 513.527C118.912 513.578 118.914 513.629 118.918 513.678C118.476 513.892 118.172 514.341 118.172 514.86C118.172 515.586 118.768 516.175 119.503 516.175H125.792C126.528 516.175 127.124 515.586 127.124 514.86C127.124 514.235 126.683 513.712 126.091 513.578Z" fill="url(#paint7_linear_16_364)"/>
</g>
<path d="M162.998 283.284C162.998 287.393 159.667 290.724 155.558 290.724C151.449 290.724 148.118 287.393 148.118 283.284C148.118 279.175 151.449 275.844 155.558 275.844C159.667 275.844 162.998 279.175 162.998 283.284Z" fill="url(#paint8_linear_16_364)"/>
<g filter="url(#filter8_b_16_364)">
<g filter="url(#filter9_i_16_364)">
<path d="M158.894 286.1C158.943 285.822 158.969 285.537 158.969 285.245C158.969 282.519 156.738 280.308 153.986 280.308C151.94 280.308 150.182 281.53 149.414 283.277C148.793 282.745 147.986 282.424 147.104 282.424C145.139 282.424 143.545 284.021 143.545 285.99C143.545 286.099 143.55 286.208 143.56 286.315C142.614 286.774 141.963 287.737 141.963 288.85C141.963 290.408 143.238 291.671 144.811 291.671H158.257C159.83 291.671 161.104 290.408 161.104 288.85C161.104 287.509 160.16 286.387 158.894 286.1Z" fill="url(#paint9_linear_16_364)"/>
</g>
</g>
<g filter="url(#filter10_di_16_364)">
<path d="M147.002 293.565C146.16 294.67 144.981 296.879 147.002 296.879C149.023 296.879 147.844 294.67 147.002 293.565Z" fill="#00BCFF"/>
</g>
<g filter="url(#filter11_di_16_364)">
<path d="M151.736 295.188C150.894 296.293 149.715 298.503 151.736 298.503C153.758 298.503 152.579 296.293 151.736 295.188Z" fill="#00BCFF"/>
</g>
<g filter="url(#filter12_di_16_364)">
<path d="M156.133 293.565C155.291 294.67 154.112 296.879 156.133 296.879C158.154 296.879 156.975 294.67 156.133 293.565Z" fill="#00BCFF"/>
</g>
<g filter="url(#filter13_b_16_364)">
<g filter="url(#filter14_i_16_364)">
<path d="M358.756 110.367C358.813 110.044 358.842 109.712 358.842 109.374C358.842 106.207 356.251 103.64 353.055 103.64C350.679 103.64 348.637 105.059 347.746 107.088C347.024 106.47 346.087 106.097 345.063 106.097C342.78 106.097 340.929 107.951 340.929 110.239C340.929 110.366 340.935 110.492 340.946 110.616C339.848 111.149 339.092 112.267 339.092 113.561C339.092 115.37 340.572 116.837 342.399 116.837H358.015C359.842 116.837 361.323 115.37 361.323 113.561C361.323 112.003 360.226 110.7 358.756 110.367Z" fill="url(#paint10_linear_16_364)"/>
</g>
</g>
<g filter="url(#filter15_i_16_364)">
<path d="M352.174 116.844H348.632L347.092 120.985H349.864L348.58 126.154L353.251 119.372H351.198L352.174 116.844Z" fill="url(#paint11_linear_16_364)"/>
</g>
<g filter="url(#filter16_f_16_364)">
<rect x="341.074" y="114.472" width="18.1954" height="3.53996" rx="1.76998" fill="#FFED8D"/>
</g>
<g filter="url(#filter17_di_16_364)">
<path d="M354.607 124.354C354.057 124.598 353.843 124.805 353.646 125.315C353.489 124.82 353.297 124.6 352.685 124.354C353.314 124.149 353.485 123.912 353.646 123.393C353.844 123.871 353.966 124.132 354.607 124.354Z" fill="url(#paint12_linear_16_364)"/>
</g>
<g filter="url(#filter18_i_16_364)">
<path d="M345.687 118.973C345.137 119.218 344.922 119.424 344.726 119.935C344.569 119.44 344.376 119.219 343.764 118.973C344.394 118.768 344.565 118.531 344.726 118.012C344.923 118.49 345.045 118.751 345.687 118.973Z" fill="url(#paint13_linear_16_364)"/>
</g>
<ellipse cx="295.5" cy="198.828" rx="20.5" ry="20" fill="white" fill-opacity="0.23"/>
<ellipse cx="350" cy="113.828" rx="21" ry="20" fill="white" fill-opacity="0.23"/>
<ellipse cx="230" cy="232.828" rx="21" ry="20" fill="white" fill-opacity="0.23"/>
<ellipse cx="153" cy="286.328" rx="21" ry="20.5" fill="white" fill-opacity="0.23"/>
<ellipse cx="127" cy="508.328" rx="21" ry="20.5" fill="white" fill-opacity="0.23"/>
</g>
<rect width="561" height="561" fill="#222222" fill-opacity="0.41"/>
<path d="M402.94 211.78L395.95 216.367L386.776 213.964L365.589 209.814L340.689 204.79C340.689 204.79 335.447 203.206 331.078 202.387C327.583 201.732 325.181 201.951 322.341 198.893C321.244 196.676 321.001 194.981 322.123 192.777C323.593 189.887 325.663 189.333 328.894 189.063C331.698 188.83 333.337 190.489 335.884 191.685C339.067 193.179 343.092 196.271 343.092 196.271C343.092 196.271 344.323 193.945 345.276 192.558C348.077 188.48 350.043 186.071 354.45 183.821C359.585 181.199 363.37 181.083 369.084 181.855C374.468 182.583 381.971 187.098 381.971 187.098C381.971 187.098 385.903 184.04 388.742 186.224C391.145 188.072 390.053 191.466 390.053 191.466L396.387 195.835C396.387 195.835 400.836 199.007 402.94 201.732C404.504 203.759 405.177 205.071 406.216 207.411C406.589 208.251 407.09 209.595 407.09 209.595L402.94 211.78Z" fill="#E62118"/>
<path d="M333.918 189.5C339.542 191.002 345.494 198.019 345.494 198.019L351.938 202.934L357.508 206.974L359.692 208.285L356.852 207.848L347.242 206.101C347.242 206.101 337.631 204.135 330.204 202.606C327.438 201.784 326.054 202.169 323.215 200.203C321.842 198.771 320.934 197.598 321.031 195.616C321.103 194.128 321.445 193.093 322.341 191.903C324.155 189.495 326.535 188.916 329.549 188.845C331.021 188.811 332.495 189.121 333.918 189.5Z" fill="#C02017"/>
<path d="M433.956 411.201L431.335 401.809L436.359 398.314L439.635 395.911H443.348L445.096 398.314L445.751 401.809L449.683 403.993L450.12 407.706L448.809 411.201L452.741 414.478V419.283L449.683 422.778L442.475 426.709L438.543 428.02L433.956 411.201Z" fill="#F7CC50"/>
<path d="M410.366 290.412L409.056 287.136C409.056 287.136 412.216 291.405 412.988 292.597C415.83 296.985 417.715 299.258 420.414 303.736C423.605 309.031 425.072 312.188 427.84 317.715C429.874 321.775 431.205 323.974 432.864 328.2C433.82 330.636 434.491 331.978 435.048 334.534C435.524 336.715 435.434 337.997 435.704 340.213C436.026 342.86 436.577 346.984 436.577 346.984C436.577 346.984 437.109 342.6 437.233 339.776C437.558 332.338 435.704 320.773 435.704 320.773C435.704 320.773 434.35 306.825 435.704 298.057C436.55 292.578 436.758 289.275 439.198 284.297C441.241 280.13 442.848 277.907 446.188 274.686C450.106 270.907 452.761 268.794 457.983 267.259C463.384 265.672 467 265.664 472.399 267.259C477.169 268.669 479.661 270.443 483.32 273.812C487.289 277.466 489.764 279.965 491.184 285.17C492.306 289.285 492.239 291.959 491.184 296.091C490.04 300.571 488.783 303.333 485.286 306.357C481.571 309.57 478.4 310.553 473.491 310.726C468.9 310.887 465.745 310.506 462.133 307.668C458.912 305.137 456.861 302.804 456.672 298.713C456.585 296.807 456.403 295.434 457.546 293.907C458.644 292.441 459.88 291.96 461.696 291.723C464.132 291.405 466.209 291.878 467.594 293.907C468.111 294.666 467.396 295.942 468.249 296.965C469.102 297.989 469.799 297.689 470.652 298.713C470.652 298.713 473.883 298.895 475.675 298.057C477.318 297.289 478.258 296.567 479.17 294.999C480.844 292.124 479.684 289.556 478.318 286.528L478.296 286.481C477.101 283.833 475.875 282.463 473.491 280.802C471.451 279.38 470.047 278.804 467.594 278.399C464.19 277.837 462.013 278.317 458.857 279.71C455.208 281.319 453.473 283.196 451.212 286.481C448.196 290.862 448.343 294.334 447.499 299.586C446.348 306.745 447.291 310.905 447.499 318.152C447.786 328.152 450.553 333.79 449.246 343.708C448.356 350.458 447.732 354.451 444.659 360.527C443.153 363.504 442.126 365.105 440.072 367.735C437.808 370.635 436.133 371.916 433.519 374.506C429.79 378.202 423.69 383.68 423.69 383.68L416.264 391.543C416.264 391.543 415.995 390.612 415.827 390.014C413.424 359.216 414.953 311.381 414.953 311.381V308.76L412.769 297.839L410.366 290.412Z" fill="#48B8AF"/>
<path d="M294.489 349.275C290.776 342.504 288.165 330.789 288.165 330.789L297.408 326.897L320.759 319.113C320.759 319.113 334.38 312.789 340.705 305.006C345.301 296.48 345.083 298.195 347.242 291.723C347.98 287.673 348.334 281.02 348.334 281.02C348.334 281.02 356.394 279.815 361.003 277.744C365.671 275.646 368.28 274.331 371.487 270.536C375.444 265.853 376.726 262.016 377.166 255.901C377.592 249.977 377.12 246.376 373.453 241.704C371.388 239.073 369.559 237.381 366.463 236.025C364.394 235.119 361.439 234.714 361.439 234.714L361.003 234.059C361.003 234.059 362.822 232.975 363.842 232.093C366.907 229.442 367.839 226.672 368.647 222.701C368.429 218.769 368.429 217.459 367.555 213.527C367.19 211.885 364.934 209.377 364.934 209.377L396.169 215.93C396.169 215.93 393.413 217.67 391.8 218.988C388.432 221.74 386.877 223.255 385.248 227.288L385.245 227.295C383.866 230.706 382.933 233.015 383.282 236.68C383.793 242.057 384.916 244.892 388.524 248.912C390.942 251.606 392.766 252.919 396.169 254.154C398.213 254.896 401.411 255.465 401.411 255.465C401.411 255.465 400.164 257.393 399.445 258.304C397.279 261.051 393.111 264.638 393.111 264.638C393.111 264.638 393.08 265.305 393.111 265.731L393.548 265.949L393.985 304.173L393.548 327.545L393.111 372.322C393.111 372.322 392.94 383.256 393.548 389.796C394.15 396.276 394.664 399.246 396.824 405.085C398.773 410.355 399.718 413.709 403.377 417.972C405.302 420.216 408.838 423.215 408.838 423.215C408.838 423.215 409.065 424.291 409.274 424.962C411.677 428.457 412.336 429.488 414.298 432.388C416.26 435.289 417.793 436.32 417.793 436.32L411.896 435.009C411.896 435.009 405.672 433.565 401.411 432.607C395.517 431.281 392.667 430.894 386.777 429.549C384.901 429.12 381.316 428.238 381.316 428.238C381.316 428.238 378.939 423.004 378.04 419.72C376.438 413.869 377.024 409.974 378.04 403.993C378.976 398.481 382.408 390.888 382.408 390.888L383.282 388.922L382.408 388.703C377.603 393.946 371.035 398.609 367.992 407.27C366.778 410.726 366.015 412.779 366.026 416.443C365.59 423.215 369.084 426.928 370.613 429.767C367.118 431.078 364.497 433.699 364.497 433.699C364.497 433.699 364.497 433.917 363.842 434.354C354.887 432.388 351.173 431.952 340.034 429.112C331.297 405.085 347.023 387.83 359.037 374.724C352.921 366.643 343.137 358.032 348.975 323.492C340.456 334.195 315.894 339.446 294.489 349.275Z" fill="#48B8AF"/>
<path d="M367.118 443.528H322.997C322.997 443.528 319.767 441.807 319.065 439.815C318.555 438.367 318.646 437.36 319.065 435.883C319.661 433.781 320.884 432.916 322.56 431.515C324.727 429.704 326.37 429.13 329.113 428.457C331.521 427.866 332.979 427.782 335.447 428.02C337.363 428.204 340.252 429.112 340.252 429.112L364.279 434.136C364.279 434.136 363.023 436.45 362.968 438.067C362.924 439.371 364.068 439.993 364.716 441.125C365.346 442.226 367.118 443.528 367.118 443.528Z" fill="#ECB624"/>
<path d="M362.75 437.631C362.875 440.444 366.9 443.528 366.9 443.528L411.677 443.965C411.677 443.965 414.857 443.844 416.045 443.091C417.665 442.065 418.83 440.851 418.667 438.941C418.559 437.686 418.667 436.434 417.138 436.102C407.09 433.917 397.698 431.515 385.684 429.112C382.536 428.632 380.778 427.77 377.603 428.02C374.214 428.286 372.142 428.894 369.084 430.422C365.893 432.376 362.584 433.893 362.75 437.631Z" fill="#F7CB53"/>
<path d="M361.221 325.797C348.911 326.363 345.643 343.338 349.426 355.066C352.223 363.736 357.135 371.242 366.245 371.23C378.072 371.213 382.021 355.448 379.35 343.926C377.09 334.173 371.223 325.337 361.221 325.797Z" fill="#63C8C8"/>
<path d="M435.485 416.443L431.335 401.809C431.335 401.809 429.313 402.483 428.277 402.683C426.76 402.975 425.863 402.972 424.345 402.683C422.463 402.323 421.569 401.398 420.195 400.062C418.008 397.934 417.57 395.997 416.701 393.072C416.157 391.244 416.149 390.147 415.827 388.267C415.172 356.813 415.172 310.944 415.172 310.944C415.172 310.944 414.514 304.769 413.643 300.897C412.399 295.37 411.393 292.296 409.056 287.136C408.19 285.225 407.671 284.165 406.653 282.331C402.678 275.167 393.548 265.949 393.548 265.949L393.111 371.885C393.111 371.885 392.473 384.896 393.766 393.072C394.771 399.427 395.108 403.227 397.916 409.017C401.352 416.102 404.052 420.471 410.803 424.525C413.886 426.376 415.854 427.067 419.322 428.02C425.417 429.695 435.485 428.894 435.485 428.894L438.543 428.02L435.485 416.443Z" fill="#63C8C8"/>
<path d="M388.306 249.567C391.401 252.843 394.047 253.915 398.353 255.246C403.377 256.338 405.799 256.297 410.585 256.12C416.555 255.899 420.581 256.651 425.656 253.499C429.979 250.813 431.756 248.04 433.956 243.451C435.745 239.72 436.402 237.319 436.577 233.185C436.788 228.221 436.123 225.206 433.956 220.735C431.893 216.479 430.239 213.978 426.311 211.343C422.66 208.893 420.004 207.974 415.609 207.848C412.13 207.749 410.187 208.539 406.872 209.595C400.319 212.872 397.042 215.056 390.927 219.425C386.607 224.212 384.374 223.793 383.063 234.059C382.661 240.416 383.914 244.921 388.306 249.567Z" fill="#F7CB52"/>
<path d="M194.536 69.228C197.88 74.8439 198.916 79.7149 201.331 86.0876C263.323 62.5922 359.314 85.431 395.315 157.519C398.291 163.477 401.343 170.215 402.561 176.637C401.568 184.706 388.998 191.09 381.307 184.692C369.697 173.301 359.301 169.618 346.516 175.204C333.897 180.718 330.082 192.77 330.297 204.026C329.878 211.472 314.56 218.088 307.625 212.618C299.655 202.277 286.87 196.87 273.898 202.727C261.86 208.162 256.755 220.562 256.615 231.952C253.948 243.085 241.539 244.549 236.069 239.739C223.923 226.932 215.753 225.337 202.696 229.713C188.977 234.311 185.821 248.256 183.997 259.475C183.138 267.898 168.7 272.56 162.034 267.799C148.202 254.821 141.151 253.985 128.306 257.908C114.355 262.168 111.566 276.804 110.315 287.401C109.165 297.149 92.2222 299.522 88.7066 295.59C59.315 229.8 95.9028 126.451 180.566 94.3629C178.543 88.0241 176.808 84.4498 174.527 78.4312C175.118 72.8002 176.181 67.7779 181.446 65.6867C186.368 63.7311 190.29 66.0645 194.536 69.228Z" fill="#34BDB4"/>
<path d="M249.22 270.491L265.786 265.114L294.489 345.383C294.489 345.383 295.424 353.363 295.462 358.032C293.733 371.644 282.083 379.158 282.083 379.158C282.083 379.158 269.637 386.16 260.921 386.248C251.935 386.338 247.786 384.788 239.03 379.158C235.336 375.834 231.261 373.681 231.733 368.735C232.178 364.063 235.417 358.808 239.961 359.978C242.581 360.652 242.669 361.646 244.879 364.858C249.264 371.232 254.514 371.653 262.381 371.653C265.605 371.209 268.406 370.504 271.138 368.735C278.16 364.187 283.751 361.437 279.546 350.504C268.219 321.059 259.06 296.454 249.22 270.491Z" fill="#34BDB4"/>
<path d="M398.353 221.172C390.007 226.964 386.34 236.025 392.456 246.509C409.274 236.243 414.298 233.404 425.438 226.196C419.388 217.301 407.191 215.038 398.353 221.172Z" fill="#EEB524"/>
<path d="M275.688 358.026C271.32 358.026 269.791 352.347 272.849 350.381C272.675 349.87 272.586 349.581 272.412 349.07C268.48 349.07 267.17 343.828 269.572 341.425C261.491 339.023 265.422 333.344 266.951 332.47C270.227 330.598 275.251 327.883 281.804 326.136C285.736 325.917 287.046 332.033 285.517 334.436C289.23 333.999 291.851 340.77 289.667 343.61C294.036 344.046 294.254 349.507 293.162 351.254C287.265 354.312 283.988 355.841 275.688 358.026Z" fill="#F7CB51"/>
<path d="M357.726 278.836C348.115 281.239 343.143 281.77 333.699 282.986C329.869 283.479 327.729 284.24 323.87 284.078C316.863 283.784 312.496 282.537 306.833 278.399C300.319 273.64 297.119 269.042 295.475 261.144C294.362 255.793 294.684 252.435 296.13 247.165C297.362 242.676 298.604 240.203 301.372 236.462C304.209 232.629 306.253 230.639 310.328 228.162C317.175 223.999 322.778 225.104 328.239 224.23C332.607 223.531 334.235 221.844 336.102 219.643C338.511 216.803 338.988 214.537 339.815 210.906C340.351 208.554 340.689 204.79 340.689 204.79L365.152 209.377C365.152 209.377 365.852 210.286 366.245 210.906C368.668 214.738 369.246 217.687 368.647 222.264C368.072 226.66 367.026 228.884 363.842 232.093C363.034 232.908 362.531 233.404 361.221 234.059C361.184 234.312 361.292 234.454 361.221 234.714C366.245 235.151 369.051 236.742 372.36 240.175C376.554 244.525 377.36 248.767 377.384 254.809C377.415 262.448 375.108 267.511 369.521 272.72C365.726 276.258 362.563 276.958 357.726 278.836Z" fill="#F7CC50"/>
<ellipse cx="342" cy="221.172" rx="3.93164" ry="3.71322" fill="#48B8AF"/>
<ellipse cx="353.795" cy="223.356" rx="3.93164" ry="3.71322" fill="#48B8AF"/>
<ellipse cx="312.294" cy="262.017" rx="6.55273" ry="6.11588" fill="#48B8AF"/>
<g filter="url(#filter19_f_16_364)">
<ellipse cx="273.05" cy="268.742" rx="149.041" ry="156.809" fill="#9A9A9A" fill-opacity="0.4"/>
</g>
<path d="M90.9439 300L78.245 256.364H89.8999L96.4837 284.957H96.8459L104.367 256.364H113.87L121.391 285.021H121.754L128.359 256.364H139.992L127.315 300H117.151L109.289 273.537H108.948L101.086 300H90.9439ZM156.015 300.618C152.592 300.618 149.637 299.943 147.151 298.594C144.68 297.23 142.776 295.291 141.441 292.777C140.12 290.249 139.46 287.244 139.46 283.764C139.46 280.384 140.127 277.429 141.462 274.901C142.798 272.358 144.68 270.384 147.109 268.977C149.538 267.557 152.4 266.847 155.695 266.847C158.025 266.847 160.156 267.209 162.087 267.933C164.019 268.658 165.688 269.73 167.094 271.151C168.501 272.571 169.594 274.325 170.376 276.413C171.157 278.487 171.548 280.866 171.548 283.551V286.151H143.103V280.099H161.853C161.839 278.991 161.576 278.004 161.065 277.138C160.553 276.271 159.85 275.597 158.955 275.114C158.075 274.616 157.059 274.368 155.908 274.368C154.744 274.368 153.7 274.631 152.776 275.156C151.853 275.668 151.121 276.371 150.582 277.266C150.042 278.146 149.758 279.148 149.729 280.27V286.428C149.729 287.763 149.992 288.935 150.518 289.943C151.043 290.937 151.789 291.712 152.755 292.266C153.721 292.82 154.871 293.097 156.207 293.097C157.13 293.097 157.968 292.969 158.721 292.713C159.474 292.457 160.12 292.081 160.66 291.584C161.2 291.087 161.604 290.476 161.874 289.751L171.441 290.028C171.043 292.173 170.17 294.041 168.82 295.632C167.485 297.209 165.731 298.437 163.558 299.318C161.384 300.185 158.87 300.618 156.015 300.618ZM186.095 300.554C184.007 300.554 182.153 300.206 180.534 299.51C178.929 298.8 177.657 297.734 176.72 296.314C175.797 294.879 175.335 293.082 175.335 290.923C175.335 289.105 175.654 287.571 176.294 286.321C176.933 285.071 177.814 284.055 178.936 283.274C180.058 282.493 181.35 281.903 182.814 281.506C184.277 281.094 185.839 280.817 187.501 280.675C189.362 280.504 190.86 280.327 191.997 280.142C193.133 279.943 193.957 279.666 194.468 279.311C194.994 278.942 195.257 278.423 195.257 277.756V277.649C195.257 276.555 194.88 275.71 194.127 275.114C193.375 274.517 192.359 274.219 191.081 274.219C189.703 274.219 188.595 274.517 187.757 275.114C186.919 275.71 186.386 276.534 186.159 277.585L176.549 277.244C176.833 275.256 177.565 273.48 178.744 271.918C179.937 270.341 181.571 269.105 183.645 268.21C185.733 267.301 188.24 266.847 191.166 266.847C193.254 266.847 195.179 267.095 196.94 267.592C198.701 268.075 200.235 268.786 201.542 269.723C202.849 270.646 203.858 271.783 204.568 273.132C205.292 274.482 205.654 276.023 205.654 277.756V300H195.853V295.44H195.598C195.015 296.548 194.27 297.486 193.36 298.253C192.466 299.02 191.407 299.595 190.186 299.979C188.978 300.362 187.615 300.554 186.095 300.554ZM189.312 293.736C190.434 293.736 191.443 293.509 192.338 293.054C193.247 292.599 193.971 291.974 194.511 291.179C195.051 290.369 195.321 289.432 195.321 288.366V285.256C195.022 285.412 194.66 285.554 194.234 285.682C193.822 285.81 193.368 285.93 192.87 286.044C192.373 286.158 191.862 286.257 191.336 286.342C190.811 286.428 190.306 286.506 189.824 286.577C188.843 286.733 188.005 286.974 187.309 287.301C186.627 287.628 186.102 288.054 185.733 288.58C185.377 289.091 185.2 289.702 185.2 290.412C185.2 291.491 185.583 292.315 186.35 292.884C187.132 293.452 188.119 293.736 189.312 293.736ZM230.498 267.273V274.943H209.852V267.273H230.498ZM214.177 259.432H224.596V289.709C224.596 290.348 224.696 290.866 224.895 291.264C225.108 291.648 225.413 291.925 225.811 292.095C226.208 292.251 226.684 292.33 227.238 292.33C227.636 292.33 228.055 292.294 228.495 292.223C228.95 292.138 229.291 292.067 229.518 292.01L231.095 299.531C230.598 299.673 229.895 299.851 228.985 300.064C228.091 300.277 227.018 300.412 225.768 300.469C223.325 300.582 221.23 300.298 219.483 299.616C217.75 298.92 216.422 297.841 215.498 296.378C214.589 294.915 214.149 293.075 214.177 290.859V259.432ZM246.936 281.335V300H236.517V256.364H246.596V273.281H246.958C247.696 271.264 248.904 269.687 250.58 268.551C252.27 267.415 254.337 266.847 256.78 266.847C259.081 266.847 261.084 267.358 262.789 268.381C264.493 269.389 265.814 270.817 266.752 272.663C267.703 274.51 268.172 276.669 268.158 279.141V300H257.739V281.186C257.753 279.368 257.299 277.947 256.375 276.925C255.452 275.902 254.152 275.391 252.476 275.391C251.382 275.391 250.417 275.632 249.578 276.115C248.755 276.584 248.108 277.259 247.64 278.139C247.185 279.02 246.951 280.085 246.936 281.335ZM289.96 300.618C286.537 300.618 283.582 299.943 281.097 298.594C278.625 297.23 276.722 295.291 275.386 292.777C274.065 290.249 273.405 287.244 273.405 283.764C273.405 280.384 274.072 277.429 275.408 274.901C276.743 272.358 278.625 270.384 281.054 268.977C283.483 267.557 286.345 266.847 289.641 266.847C291.97 266.847 294.101 267.209 296.033 267.933C297.964 268.658 299.634 269.73 301.04 271.151C302.446 272.571 303.54 274.325 304.321 276.413C305.102 278.487 305.493 280.866 305.493 283.551V286.151H277.048V280.099H295.798C295.784 278.991 295.521 278.004 295.01 277.138C294.499 276.271 293.795 275.597 292.901 275.114C292.02 274.616 291.004 274.368 289.854 274.368C288.689 274.368 287.645 274.631 286.722 275.156C285.798 275.668 285.067 276.371 284.527 277.266C283.987 278.146 283.703 279.148 283.675 280.27V286.428C283.675 287.763 283.938 288.935 284.463 289.943C284.989 290.937 285.734 291.712 286.7 292.266C287.666 292.82 288.817 293.097 290.152 293.097C291.075 293.097 291.913 292.969 292.666 292.713C293.419 292.457 294.065 292.081 294.605 291.584C295.145 291.087 295.55 290.476 295.82 289.751L305.386 290.028C304.989 292.173 304.115 294.041 302.766 295.632C301.43 297.209 299.676 298.437 297.503 299.318C295.33 300.185 292.815 300.618 289.96 300.618ZM310.814 300V267.273H320.935V273.239H321.276C321.873 271.08 322.846 269.474 324.195 268.423C325.544 267.358 327.114 266.825 328.904 266.825C329.387 266.825 329.884 266.861 330.395 266.932C330.907 266.989 331.382 267.081 331.823 267.209V276.264C331.326 276.094 330.672 275.959 329.863 275.859C329.067 275.76 328.357 275.71 327.732 275.71C326.496 275.71 325.381 275.987 324.387 276.541C323.407 277.081 322.632 277.841 322.064 278.821C321.51 279.787 321.233 280.923 321.233 282.23V300H310.814ZM346.53 300L333.831 256.364H345.486L352.07 284.957H352.432L359.953 256.364H369.456L376.977 285.021H377.339L383.945 256.364H395.578L382.901 300H372.737L364.875 273.537H364.534L356.672 300H346.53ZM399.935 300V267.273H410.354V300H399.935ZM405.156 263.459C403.692 263.459 402.435 262.976 401.384 262.01C400.333 261.03 399.808 259.851 399.808 258.473C399.808 257.109 400.333 255.945 401.384 254.979C402.435 253.999 403.692 253.509 405.156 253.509C406.633 253.509 407.89 253.999 408.927 254.979C409.978 255.945 410.504 257.109 410.504 258.473C410.504 259.851 409.978 261.03 408.927 262.01C407.89 262.976 406.633 263.459 405.156 263.459ZM417.071 300V294.055L432.242 275.582V275.369H417.604V267.273H444.664V273.793L430.601 291.69V291.903H445.175V300H417.071ZM466.269 300.618C462.846 300.618 459.891 299.943 457.405 298.594C454.934 297.23 453.03 295.291 451.695 292.777C450.374 290.249 449.713 287.244 449.713 283.764C449.713 280.384 450.381 277.429 451.716 274.901C453.051 272.358 454.934 270.384 457.363 268.977C459.792 267.557 462.654 266.847 465.949 266.847C468.279 266.847 470.409 267.209 472.341 267.933C474.273 268.658 475.942 269.73 477.348 271.151C478.755 272.571 479.848 274.325 480.63 276.413C481.411 278.487 481.801 280.866 481.801 283.551V286.151H453.357V280.099H472.107C472.093 278.991 471.83 278.004 471.319 277.138C470.807 276.271 470.104 275.597 469.209 275.114C468.328 274.616 467.313 274.368 466.162 274.368C464.998 274.368 463.953 274.631 463.03 275.156C462.107 275.668 461.375 276.371 460.836 277.266C460.296 278.146 460.012 279.148 459.983 280.27V286.428C459.983 287.763 460.246 288.935 460.772 289.943C461.297 290.937 462.043 291.712 463.009 292.266C463.975 292.82 465.125 293.097 466.461 293.097C467.384 293.097 468.222 292.969 468.975 292.713C469.728 292.457 470.374 292.081 470.914 291.584C471.453 291.087 471.858 290.476 472.128 289.751L481.695 290.028C481.297 292.173 480.424 294.041 479.074 295.632C477.739 297.209 475.985 298.437 473.811 299.318C471.638 300.185 469.124 300.618 466.269 300.618Z" fill="white"/>
<defs>
<filter id="filter0_f_16_364" x="211.209" y="109.343" width="173.483" height="172.347" filterUnits="userSpaceOnUse" color-interpolation-filters="sRGB">
<feFlood flood-opacity="0" result="BackgroundImageFix"/>
<feBlend mode="normal" in="SourceGraphic" in2="BackgroundImageFix" result="shape"/>
<feGaussianBlur stdDeviation="38.5" result="effect1_foregroundBlur_16_364"/>
</filter>
<filter id="filter1_b_16_364" x="255.445" y="167.38" width="74.0527" height="65.9041" filterUnits="userSpaceOnUse" color-interpolation-filters="sRGB">
<feFlood flood-opacity="0" result="BackgroundImageFix"/>
<feGaussianBlur in="BackgroundImageFix" stdDeviation="13.5"/>
<feComposite in2="SourceAlpha" operator="in" result="effect1_backgroundBlur_16_364"/>
<feBlend mode="normal" in="SourceGraphic" in2="effect1_backgroundBlur_16_364" result="shape"/>
</filter>
<filter id="filter2_i_16_364" x="282.445" y="194.38" width="20.0527" height="21.9041" filterUnits="userSpaceOnUse" color-interpolation-filters="sRGB">
<feFlood flood-opacity="0" result="BackgroundImageFix"/>
<feBlend mode="normal" in="SourceGraphic" in2="BackgroundImageFix" result="shape"/>
<feColorMatrix in="SourceAlpha" type="matrix" values="0 0 0 0 0 0 0 0 0 0 0 0 0 0 0 0 0 0 127 0" result="hardAlpha"/>
<feOffset dy="11"/>
<feGaussianBlur stdDeviation="5"/>
<feComposite in2="hardAlpha" operator="arithmetic" k2="-1" k3="1"/>
<feColorMatrix type="matrix" values="0 0 0 0 1 0 0 0 0 1 0 0 0 0 1 0 0 0 1 0"/>
<feBlend mode="normal" in2="shape" result="effect1_innerShadow_16_364"/>
</filter>
<filter id="filter3_i_16_364" x="217.869" y="222.597" width="24.566" height="24.5833" filterUnits="userSpaceOnUse" color-interpolation-filters="sRGB">
<feFlood flood-opacity="0" result="BackgroundImageFix"/>
<feBlend mode="normal" in="SourceGraphic" in2="BackgroundImageFix" result="shape"/>
<feColorMatrix in="SourceAlpha" type="matrix" values="0 0 0 0 0 0 0 0 0 0 0 0 0 0 0 0 0 0 127 0" result="hardAlpha"/>
<feOffset dy="11"/>
<feGaussianBlur stdDeviation="5"/>
<feComposite in2="hardAlpha" operator="arithmetic" k2="-1" k3="1"/>
<feColorMatrix type="matrix" values="0 0 0 0 1 0 0 0 0 1 0 0 0 0 1 0 0 0 1 0"/>
<feBlend mode="normal" in2="shape" result="effect1_innerShadow_16_364"/>
</filter>
<filter id="filter4_di_16_364" x="203.563" y="233.237" width="41.8335" height="44.7112" filterUnits="userSpaceOnUse" color-interpolation-filters="sRGB">
<feFlood flood-opacity="0" result="BackgroundImageFix"/>
<feColorMatrix in="SourceAlpha" type="matrix" values="0 0 0 0 0 0 0 0 0 0 0 0 0 0 0 0 0 0 127 0" result="hardAlpha"/>
<feOffset dy="20"/>
<feGaussianBlur stdDeviation="9.5"/>
<feComposite in2="hardAlpha" operator="out"/>
<feColorMatrix type="matrix" values="0 0 0 0 0.283785 0 0 0 0 0.178889 0 0 0 0 0.933333 0 0 0 1 0"/>
<feBlend mode="normal" in2="BackgroundImageFix" result="effect1_dropShadow_16_364"/>
<feBlend mode="normal" in="SourceGraphic" in2="effect1_dropShadow_16_364" result="shape"/>
<feColorMatrix in="SourceAlpha" type="matrix" values="0 0 0 0 0 0 0 0 0 0 0 0 0 0 0 0 0 0 127 0" result="hardAlpha"/>
<feOffset dy="9"/>
<feGaussianBlur stdDeviation="1.5"/>
<feComposite in2="hardAlpha" operator="arithmetic" k2="-1" k3="1"/>
<feColorMatrix type="matrix" values="0 0 0 0 1 0 0 0 0 1 0 0 0 0 1 0 0 0 0.21 0"/>
<feBlend mode="normal" in2="shape" result="effect2_innerShadow_16_364"/>
</filter>
<filter id="filter5_i_16_364" x="128.133" y="501.548" width="8.95264" height="15.2959" filterUnits="userSpaceOnUse" color-interpolation-filters="sRGB">
<feFlood flood-opacity="0" result="BackgroundImageFix"/>
<feBlend mode="normal" in="SourceGraphic" in2="BackgroundImageFix" result="shape"/>
<feColorMatrix in="SourceAlpha" type="matrix" values="0 0 0 0 0 0 0 0 0 0 0 0 0 0 0 0 0 0 127 0" result="hardAlpha"/>
<feOffset dy="11"/>
<feGaussianBlur stdDeviation="5"/>
<feComposite in2="hardAlpha" operator="arithmetic" k2="-1" k3="1"/>
<feColorMatrix type="matrix" values="0 0 0 0 1 0 0 0 0 1 0 0 0 0 1 0 0 0 1 0"/>
<feBlend mode="normal" in2="shape" result="effect1_innerShadow_16_364"/>
</filter>
<filter id="filter6_f_16_364" x="42.5586" y="424.296" width="169.131" height="168.249" filterUnits="userSpaceOnUse" color-interpolation-filters="sRGB">
<feFlood flood-opacity="0" result="BackgroundImageFix"/>
<feBlend mode="normal" in="SourceGraphic" in2="BackgroundImageFix" result="shape"/>
<feGaussianBlur stdDeviation="38.5" result="effect1_foregroundBlur_16_364"/>
</filter>
<filter id="filter7_i_16_364" x="118.172" y="510.879" width="8.95264" height="15.2959" filterUnits="userSpaceOnUse" color-interpolation-filters="sRGB">
<feFlood flood-opacity="0" result="BackgroundImageFix"/>
<feBlend mode="normal" in="SourceGraphic" in2="BackgroundImageFix" result="shape"/>
<feColorMatrix in="SourceAlpha" type="matrix" values="0 0 0 0 0 0 0 0 0 0 0 0 0 0 0 0 0 0 127 0" result="hardAlpha"/>
<feOffset dy="11"/>
<feGaussianBlur stdDeviation="5"/>
<feComposite in2="hardAlpha" operator="arithmetic" k2="-1" k3="1"/>
<feColorMatrix type="matrix" values="0 0 0 0 1 0 0 0 0 1 0 0 0 0 1 0 0 0 1 0"/>
<feBlend mode="normal" in2="shape" result="effect1_innerShadow_16_364"/>
</filter>
<filter id="filter8_b_16_364" x="114.963" y="253.308" width="73.1414" height="65.363" filterUnits="userSpaceOnUse" color-interpolation-filters="sRGB">
<feFlood flood-opacity="0" result="BackgroundImageFix"/>
<feGaussianBlur in="BackgroundImageFix" stdDeviation="13.5"/>
<feComposite in2="SourceAlpha" operator="in" result="effect1_backgroundBlur_16_364"/>
<feBlend mode="normal" in="SourceGraphic" in2="effect1_backgroundBlur_16_364" result="shape"/>
</filter>
<filter id="filter9_i_16_364" x="141.963" y="280.308" width="19.1414" height="21.363" filterUnits="userSpaceOnUse" color-interpolation-filters="sRGB">
<feFlood flood-opacity="0" result="BackgroundImageFix"/>
<feBlend mode="normal" in="SourceGraphic" in2="BackgroundImageFix" result="shape"/>
<feColorMatrix in="SourceAlpha" type="matrix" values="0 0 0 0 0 0 0 0 0 0 0 0 0 0 0 0 0 0 127 0" result="hardAlpha"/>
<feOffset dy="11"/>
<feGaussianBlur stdDeviation="5"/>
<feComposite in2="hardAlpha" operator="arithmetic" k2="-1" k3="1"/>
<feColorMatrix type="matrix" values="0 0 0 0 1 0 0 0 0 1 0 0 0 0 1 0 0 0 1 0"/>
<feBlend mode="normal" in2="shape" result="effect1_innerShadow_16_364"/>
</filter>
<filter id="filter10_di_16_364" x="126.886" y="293.565" width="40.2321" height="42.3142" filterUnits="userSpaceOnUse" color-interpolation-filters="sRGB">
<feFlood flood-opacity="0" result="BackgroundImageFix"/>
<feColorMatrix in="SourceAlpha" type="matrix" values="0 0 0 0 0 0 0 0 0 0 0 0 0 0 0 0 0 0 127 0" result="hardAlpha"/>
<feOffset dy="20"/>
<feGaussianBlur stdDeviation="9.5"/>
<feComposite in2="hardAlpha" operator="out"/>
<feColorMatrix type="matrix" values="0 0 0 0 0.283785 0 0 0 0 0.178889 0 0 0 0 0.933333 0 0 0 1 0"/>
<feBlend mode="normal" in2="BackgroundImageFix" result="effect1_dropShadow_16_364"/>
<feBlend mode="normal" in="SourceGraphic" in2="effect1_dropShadow_16_364" result="shape"/>
<feColorMatrix in="SourceAlpha" type="matrix" values="0 0 0 0 0 0 0 0 0 0 0 0 0 0 0 0 0 0 127 0" result="hardAlpha"/>
<feOffset dy="9"/>
<feGaussianBlur stdDeviation="1.5"/>
<feComposite in2="hardAlpha" operator="arithmetic" k2="-1" k3="1"/>
<feColorMatrix type="matrix" values="0 0 0 0 1 0 0 0 0 1 0 0 0 0 1 0 0 0 0.21 0"/>
<feBlend mode="normal" in2="shape" result="effect2_innerShadow_16_364"/>
</filter>
<filter id="filter11_di_16_364" x="131.62" y="295.188" width="40.2321" height="42.3142" filterUnits="userSpaceOnUse" color-interpolation-filters="sRGB">
<feFlood flood-opacity="0" result="BackgroundImageFix"/>
<feColorMatrix in="SourceAlpha" type="matrix" values="0 0 0 0 0 0 0 0 0 0 0 0 0 0 0 0 0 0 127 0" result="hardAlpha"/>
<feOffset dy="20"/>
<feGaussianBlur stdDeviation="9.5"/>
<feComposite in2="hardAlpha" operator="out"/>
<feColorMatrix type="matrix" values="0 0 0 0 0.283785 0 0 0 0 0.178889 0 0 0 0 0.933333 0 0 0 1 0"/>
<feBlend mode="normal" in2="BackgroundImageFix" result="effect1_dropShadow_16_364"/>
<feBlend mode="normal" in="SourceGraphic" in2="effect1_dropShadow_16_364" result="shape"/>
<feColorMatrix in="SourceAlpha" type="matrix" values="0 0 0 0 0 0 0 0 0 0 0 0 0 0 0 0 0 0 127 0" result="hardAlpha"/>
<feOffset dy="9"/>
<feGaussianBlur stdDeviation="1.5"/>
<feComposite in2="hardAlpha" operator="arithmetic" k2="-1" k3="1"/>
<feColorMatrix type="matrix" values="0 0 0 0 1 0 0 0 0 1 0 0 0 0 1 0 0 0 0.21 0"/>
<feBlend mode="normal" in2="shape" result="effect2_innerShadow_16_364"/>
</filter>
<filter id="filter12_di_16_364" x="136.017" y="293.565" width="40.2321" height="42.3142" filterUnits="userSpaceOnUse" color-interpolation-filters="sRGB">
<feFlood flood-opacity="0" result="BackgroundImageFix"/>
<feColorMatrix in="SourceAlpha" type="matrix" values="0 0 0 0 0 0 0 0 0 0 0 0 0 0 0 0 0 0 127 0" result="hardAlpha"/>
<feOffset dy="20"/>
<feGaussianBlur stdDeviation="9.5"/>
<feComposite in2="hardAlpha" operator="out"/>
<feColorMatrix type="matrix" values="0 0 0 0 0.283785 0 0 0 0 0.178889 0 0 0 0 0.933333 0 0 0 1 0"/>
<feBlend mode="normal" in2="BackgroundImageFix" result="effect1_dropShadow_16_364"/>
<feBlend mode="normal" in="SourceGraphic" in2="effect1_dropShadow_16_364" result="shape"/>
<feColorMatrix in="SourceAlpha" type="matrix" values="0 0 0 0 0 0 0 0 0 0 0 0 0 0 0 0 0 0 127 0" result="hardAlpha"/>
<feOffset dy="9"/>
<feGaussianBlur stdDeviation="1.5"/>
<feComposite in2="hardAlpha" operator="arithmetic" k2="-1" k3="1"/>
<feColorMatrix type="matrix" values="0 0 0 0 1 0 0 0 0 1 0 0 0 0 1 0 0 0 0.21 0"/>
<feBlend mode="normal" in2="shape" result="effect2_innerShadow_16_364"/>
</filter>
<filter id="filter13_b_16_364" x="312.092" y="76.64" width="76.231" height="67.1971" filterUnits="userSpaceOnUse" color-interpolation-filters="sRGB">
<feFlood flood-opacity="0" result="BackgroundImageFix"/>
<feGaussianBlur in="BackgroundImageFix" stdDeviation="13.5"/>
<feComposite in2="SourceAlpha" operator="in" result="effect1_backgroundBlur_16_364"/>
<feBlend mode="normal" in="SourceGraphic" in2="effect1_backgroundBlur_16_364" result="shape"/>
</filter>
<filter id="filter14_i_16_364" x="339.092" y="103.64" width="22.231" height="23.1971" filterUnits="userSpaceOnUse" color-interpolation-filters="sRGB">
<feFlood flood-opacity="0" result="BackgroundImageFix"/>
<feBlend mode="normal" in="SourceGraphic" in2="BackgroundImageFix" result="shape"/>
<feColorMatrix in="SourceAlpha" type="matrix" values="0 0 0 0 0 0 0 0 0 0 0 0 0 0 0 0 0 0 127 0" result="hardAlpha"/>
<feOffset dy="11"/>
<feGaussianBlur stdDeviation="5"/>
<feComposite in2="hardAlpha" operator="arithmetic" k2="-1" k3="1"/>
<feColorMatrix type="matrix" values="0 0 0 0 1 0 0 0 0 1 0 0 0 0 1 0 0 0 1 0"/>
<feBlend mode="normal" in2="shape" result="effect1_innerShadow_16_364"/>
</filter>
<filter id="filter15_i_16_364" x="345.092" y="116.844" width="8.15955" height="9.31006" filterUnits="userSpaceOnUse" color-interpolation-filters="sRGB">
<feFlood flood-opacity="0" result="BackgroundImageFix"/>
<feBlend mode="normal" in="SourceGraphic" in2="BackgroundImageFix" result="shape"/>
<feColorMatrix in="SourceAlpha" type="matrix" values="0 0 0 0 0 0 0 0 0 0 0 0 0 0 0 0 0 0 127 0" result="hardAlpha"/>
<feOffset dx="-2"/>
<feGaussianBlur stdDeviation="4.5"/>
<feComposite in2="hardAlpha" operator="arithmetic" k2="-1" k3="1"/>
<feColorMatrix type="matrix" values="0 0 0 0 1 0 0 0 0 1 0 0 0 0 1 0 0 0 0.5 0"/>
<feBlend mode="normal" in2="shape" result="effect1_innerShadow_16_364"/>
</filter>
<filter id="filter16_f_16_364" x="264.074" y="37.4723" width="172.195" height="157.54" filterUnits="userSpaceOnUse" color-interpolation-filters="sRGB">
<feFlood flood-opacity="0" result="BackgroundImageFix"/>
<feBlend mode="normal" in="SourceGraphic" in2="BackgroundImageFix" result="shape"/>
<feGaussianBlur stdDeviation="38.5" result="effect1_foregroundBlur_16_364"/>
</filter>
<filter id="filter17_di_16_364" x="343.917" y="123.393" width="19.4571" height="21.6897" filterUnits="userSpaceOnUse" color-interpolation-filters="sRGB">
<feFlood flood-opacity="0" result="BackgroundImageFix"/>
<feColorMatrix in="SourceAlpha" type="matrix" values="0 0 0 0 0 0 0 0 0 0 0 0 0 0 0 0 0 0 127 0" result="hardAlpha"/>
<feOffset dy="11"/>
<feGaussianBlur stdDeviation="4.38372"/>
<feColorMatrix type="matrix" values="0 0 0 0 0.285052 0 0 0 0 0.179688 0 0 0 0 0.9375 0 0 0 1 0"/>
<feBlend mode="normal" in2="BackgroundImageFix" result="effect1_dropShadow_16_364"/>
<feBlend mode="normal" in="SourceGraphic" in2="effect1_dropShadow_16_364" result="shape"/>
<feColorMatrix in="SourceAlpha" type="matrix" values="0 0 0 0 0 0 0 0 0 0 0 0 0 0 0 0 0 0 127 0" result="hardAlpha"/>
<feOffset dy="4"/>
<feGaussianBlur stdDeviation="2"/>
<feComposite in2="hardAlpha" operator="arithmetic" k2="-1" k3="1"/>
<feColorMatrix type="matrix" values="0 0 0 0 1 0 0 0 0 1 0 0 0 0 1 0 0 0 0.44 0"/>
<feBlend mode="normal" in2="shape" result="effect2_innerShadow_16_364"/>
</filter>
<filter id="filter18_i_16_364" x="343.764" y="118.012" width="1.92224" height="5.92224" filterUnits="userSpaceOnUse" color-interpolation-filters="sRGB">
<feFlood flood-opacity="0" result="BackgroundImageFix"/>
<feBlend mode="normal" in="SourceGraphic" in2="BackgroundImageFix" result="shape"/>
<feColorMatrix in="SourceAlpha" type="matrix" values="0 0 0 0 0 0 0 0 0 0 0 0 0 0 0 0 0 0 127 0" result="hardAlpha"/>
<feOffset dy="4"/>
<feGaussianBlur stdDeviation="2"/>
<feComposite in2="hardAlpha" operator="arithmetic" k2="-1" k3="1"/>
<feColorMatrix type="matrix" values="0 0 0 0 1 0 0 0 0 1 0 0 0 0 1 0 0 0 0.44 0"/>
<feBlend mode="normal" in2="shape" result="effect1_innerShadow_16_364"/>
</filter>
<filter id="filter19_f_16_364" x="74.0083" y="61.9326" width="398.083" height="413.618" filterUnits="userSpaceOnUse" color-interpolation-filters="sRGB">
<feFlood flood-opacity="0" result="BackgroundImageFix"/>
<feBlend mode="normal" in="SourceGraphic" in2="BackgroundImageFix" result="shape"/>
<feGaussianBlur stdDeviation="25" result="effect1_foregroundBlur_16_364"/>
</filter>
<linearGradient id="paint0_linear_16_364" x1="-353.142" y1="-387.848" x2="24.9888" y2="1467.94" gradientUnits="userSpaceOnUse">
<stop stop-color="#41B99D"/>
<stop offset="1" stop-color="#57B5D8"/>
</linearGradient>
<linearGradient id="paint1_linear_16_364" x1="-326.776" y1="-387.848" x2="68.1645" y2="1460.6" gradientUnits="userSpaceOnUse">
<stop stop-color="#41B99D"/>
<stop offset="1" stop-color="#57B5D8"/>
</linearGradient>
<linearGradient id="paint2_linear_16_364" x1="296.668" y1="201.573" x2="303.615" y2="189.39" gradientUnits="userSpaceOnUse">
<stop stop-color="#FF9900"/>
<stop offset="1" stop-color="#FFEE94"/>
</linearGradient>
<linearGradient id="paint3_linear_16_364" x1="283.721" y1="205.221" x2="303.951" y2="190.093" gradientUnits="userSpaceOnUse">
<stop stop-color="white"/>
<stop offset="1" stop-color="white" stop-opacity="0.58"/>
</linearGradient>
<linearGradient id="paint4_linear_16_364" x1="219.431" y1="235.878" x2="244.214" y2="217.345" gradientUnits="userSpaceOnUse">
<stop stop-color="white"/>
<stop offset="1" stop-color="white" stop-opacity="0.58"/>
</linearGradient>
<linearGradient id="paint5_linear_16_364" x1="128.702" y1="506.371" x2="137.711" y2="499.61" gradientUnits="userSpaceOnUse">
<stop stop-color="white"/>
<stop offset="1" stop-color="white" stop-opacity="0.58"/>
</linearGradient>
<linearGradient id="paint6_linear_16_364" x1="126.109" y1="512.092" x2="131.686" y2="502.402" gradientUnits="userSpaceOnUse">
<stop stop-color="#FF9900"/>
<stop offset="1" stop-color="#FFEE94"/>
</linearGradient>
<linearGradient id="paint7_linear_16_364" x1="118.741" y1="515.702" x2="127.75" y2="508.941" gradientUnits="userSpaceOnUse">
<stop stop-color="white"/>
<stop offset="1" stop-color="white" stop-opacity="0.58"/>
</linearGradient>
<linearGradient id="paint8_linear_16_364" x1="154.428" y1="287.334" x2="160.55" y2="276.598" gradientUnits="userSpaceOnUse">
<stop stop-color="#FF9900"/>
<stop offset="1" stop-color="#FFEE94"/>
</linearGradient>
<linearGradient id="paint9_linear_16_364" x1="143.181" y1="290.657" x2="162.491" y2="276.216" gradientUnits="userSpaceOnUse">
<stop stop-color="white"/>
<stop offset="1" stop-color="white" stop-opacity="0.58"/>
</linearGradient>
<linearGradient id="paint10_linear_16_364" x1="340.506" y1="115.659" x2="362.933" y2="98.8875" gradientUnits="userSpaceOnUse">
<stop stop-color="white"/>
<stop offset="1" stop-color="white" stop-opacity="0.58"/>
</linearGradient>
<linearGradient id="paint11_linear_16_364" x1="349.41" y1="125.257" x2="355.419" y2="116.963" gradientUnits="userSpaceOnUse">
<stop stop-color="#FF9900"/>
<stop offset="1" stop-color="#FFEE94"/>
</linearGradient>
<linearGradient id="paint12_linear_16_364" x1="353.368" y1="125.405" x2="354.273" y2="123.707" gradientUnits="userSpaceOnUse">
<stop stop-color="#FF9900"/>
<stop offset="1" stop-color="#FFEE94"/>
</linearGradient>
<linearGradient id="paint13_linear_16_364" x1="344.447" y1="120.025" x2="345.352" y2="118.326" gradientUnits="userSpaceOnUse">
<stop stop-color="#FF9900"/>
<stop offset="1" stop-color="#FFEE94"/>
</linearGradient>
</defs>
</svg>
